<svg width="80" height="80" viewBox="0 0 80 80" fill="none" xmlns="http://www.w3.org/2000/svg">
<rect width="80" height="80" fill="#EBF6F9"/>
<path d="M63.0683 57.4676C62.6761 57.1704 62.2194 56.9699 61.7353 56.8823C61.2511 56.7948 60.7531 56.8225 60.2817 56.9634L47.705 60.6667H40.7383L35.7883 57.9167H45.0833C45.3264 57.9167 45.5596 57.8202 45.7315 57.6482C45.9034 57.4763 46 57.2432 46 57.0001V54.2501C45.9982 54.007 45.903 53.774 45.7342 53.5992L43.9008 51.7659C43.7723 51.6399 43.6098 51.5539 43.4333 51.5184L29.6833 48.7684C29.6228 48.7578 29.5615 48.7516 29.5 48.7501H24C23.8838 48.7483 23.7684 48.7701 23.6608 48.8142L20.3333 50.1434V48.7501C20.334 48.5319 20.2568 48.3207 20.1156 48.1544C19.9745 47.988 19.7787 47.8775 19.5633 47.8426L14.0633 46.9259C13.9317 46.9073 13.7976 46.9164 13.6698 46.9527C13.5419 46.989 13.423 47.0517 13.3208 47.1367C13.2207 47.2232 13.1403 47.3301 13.085 47.4503C13.0296 47.5705 13.0007 47.7011 13 47.8334V66.1667C13 66.4098 13.0966 66.643 13.2685 66.8149C13.4404 66.9868 13.6736 67.0834 13.9167 67.0834C13.9657 67.0849 14.0148 67.0818 14.0633 67.0742L19.5633 66.1576C19.7787 66.1227 19.9745 66.0121 20.1156 65.8458C20.2568 65.6794 20.334 65.4682 20.3333 65.2501V64.3334H22.9367L33.79 67.9542C33.8852 67.9829 33.9839 67.9983 34.0833 68.0001H47.8333C47.9367 68.0004 48.0392 67.9818 48.1358 67.9451L62.225 62.9767C62.8413 62.759 63.3749 62.3556 63.7525 61.8221C64.13 61.2886 64.333 60.6512 64.3333 59.9976C64.3361 59.5061 64.2231 59.0209 64.0033 58.5813C63.7835 58.1418 63.4632 57.7602 63.0683 57.4676V57.4676ZM18.5 64.4709L14.8333 65.0851V48.9151L18.5 49.5292V64.4709ZM61.62 61.2442L47.6775 66.1667H34.23L23.3767 62.5459C23.2814 62.5173 23.1827 62.5018 23.0833 62.5001H20.3333V52.1234L24.1742 50.5834H29.4083L42.8008 53.2601L44.1667 54.6259V56.0834H32.25C32.0478 56.084 31.8515 56.1515 31.6916 56.2752C31.5318 56.399 31.4173 56.5721 31.3661 56.7677C31.3148 56.9633 31.3297 57.1703 31.4083 57.3566C31.4869 57.5428 31.6249 57.6979 31.8008 57.7976L40.0508 62.3809C40.1869 62.4607 40.3422 62.5019 40.5 62.5001H47.8333C47.9203 62.502 48.007 62.4896 48.09 62.4634L60.8042 58.7234C61.001 58.6636 61.2093 58.6515 61.4117 58.6881C61.6142 58.7248 61.805 58.8092 61.9683 58.9342C62.1603 59.0778 62.3098 59.2707 62.4008 59.4924C62.4918 59.7142 62.521 59.9564 62.4853 60.1934C62.4495 60.4305 62.3502 60.6534 62.1978 60.8384C62.0455 61.0234 61.8458 61.1637 61.62 61.2442V61.2442Z" fill="#39A3C6"/>
<path d="M40.5007 47.8337C48.5875 47.8337 55.1673 39.1978 55.1673 28.5837V17.5837C55.1673 17.3818 55.1006 17.1855 54.9776 17.0254C54.8546 16.8653 54.6822 16.7503 54.4872 16.6982L40.7372 13.0315C40.5822 12.9901 40.4191 12.9901 40.2642 13.0315L26.5142 16.6982C26.3191 16.7503 26.1467 16.8653 26.0237 17.0254C25.9007 17.1855 25.834 17.3818 25.834 17.5837V28.5837C25.834 39.1978 32.4138 47.8337 40.5007 47.8337ZM27.6673 18.2886L40.5007 14.8658L53.334 18.2886V28.5837C53.334 38.1876 47.5773 46.0004 40.5007 46.0004C33.424 46.0004 27.6673 38.1876 27.6673 28.5837V18.2886Z" fill="#39A3C6"/>
<path d="M36.8333 34.0832V36.8332C36.8333 37.3194 37.0265 37.7857 37.3703 38.1295C37.7141 38.4734 38.1804 38.6665 38.6667 38.6665H42.3333C42.8196 38.6665 43.2859 38.4734 43.6297 38.1295C43.9735 37.7857 44.1667 37.3194 44.1667 36.8332V34.0832H46.9167C47.4029 34.0832 47.8692 33.89 48.213 33.5462C48.5568 33.2024 48.75 32.7361 48.75 32.2498V28.5832C48.75 28.0969 48.5568 27.6306 48.213 27.2868C47.8692 26.943 47.4029 26.7498 46.9167 26.7498H44.1667V23.9998C44.1667 23.5136 43.9735 23.0473 43.6297 22.7035C43.2859 22.3597 42.8196 22.1665 42.3333 22.1665H38.6667C38.1804 22.1665 37.7141 22.3597 37.3703 22.7035C37.0265 23.0473 36.8333 23.5136 36.8333 23.9998V26.7498H34.0833C33.5971 26.7498 33.1308 26.943 32.787 27.2868C32.4432 27.6306 32.25 28.0969 32.25 28.5832V32.2498C32.25 32.7361 32.4432 33.2024 32.787 33.5462C33.1308 33.89 33.5971 34.0832 34.0833 34.0832H36.8333ZM34.0833 28.5832H36.8333C37.3196 28.5832 37.7859 28.39 38.1297 28.0462C38.4735 27.7024 38.6667 27.2361 38.6667 26.7498V23.9998H42.3333V26.7498C42.3333 27.2361 42.5265 27.7024 42.8703 28.0462C43.2141 28.39 43.6804 28.5832 44.1667 28.5832H46.9167V32.2498H44.1667C43.6804 32.2498 43.2141 32.443 42.8703 32.7868C42.5265 33.1306 42.3333 33.5969 42.3333 34.0832V36.8332H38.6667V34.0832C38.6667 33.5969 38.4735 33.1306 38.1297 32.7868C37.7859 32.443 37.3196 32.2498 36.8333 32.2498H34.0833V28.5832Z" fill="#39A3C6"/>
<path d="M58.8333 18.5H60.6667V16.6667H62.5V14.8333H60.6667V13H58.8333V14.8333H57V16.6667H58.8333V18.5Z" fill="#39A3C6"/>
<path d="M68 20.3338H66.1667V18.5005H64.3333V20.3338H62.5V22.1672H64.3333V24.0005H66.1667V22.1672H68V20.3338Z" fill="#39A3C6"/>
<path d="M55.1673 41.417V43.2503H53.334V45.0837H55.1673V46.917H57.0007V45.0837H58.834V43.2503H57.0007V41.417H55.1673Z" fill="#39A3C6"/>
<path d="M62.4997 35.9165H60.6663V37.7498H58.833V39.5832H60.6663V41.4165H62.4997V39.5832H64.333V37.7498H62.4997V35.9165Z" fill="#39A3C6"/>
<path d="M20.3333 18.5H22.1667V16.6667H24V14.8333H22.1667V13H20.3333V14.8333H18.5V16.6667H20.3333V18.5Z" fill="#39A3C6"/>
<path d="M14.8333 24.0005H16.6667V22.1672H18.5V20.3338H16.6667V18.5005H14.8333V20.3338H13V22.1672H14.8333V24.0005Z" fill="#39A3C6"/>
<path d="M24.0003 41.417V43.2503H22.167V45.0837H24.0003V46.917H25.8337V45.0837H27.667V43.2503H25.8337V41.417H24.0003Z" fill="#39A3C6"/>
<path d="M20.3337 41.4165V39.5832H22.167V37.7498H20.3337V35.9165H18.5003V37.7498H16.667V39.5832H18.5003V41.4165H20.3337Z" fill="#39A3C6"/>
</svg>
