<svg width="72" height="72" viewBox="0 0 72 72" fill="none" xmlns="http://www.w3.org/2000/svg">
<g clip-path="url(#clip0)">
<path d="M64.6296 43.1568H7.36664C6.47203 43.152 5.61575 42.8065 4.98492 42.1957C4.35408 41.5849 3.99999 40.7585 4 39.8971V19.238C4.00596 18.3772 4.36527 17.5537 4.99952 16.947C5.63377 16.3404 6.49147 16 7.38545 16H64.6334C65.5241 16.0047 66.377 16.3473 67.0072 16.9534C67.6374 17.5595 67.9941 18.3803 68 19.238V39.9152C67.9951 40.7741 67.6383 41.5964 67.0071 42.2034C66.376 42.8104 65.5216 43.153 64.6296 43.1568ZM7.36664 17.8834C6.99317 17.8834 6.63495 18.026 6.37052 18.2799C6.10609 18.5338 5.95703 18.8784 5.95604 19.238V39.9152C5.95604 40.2755 6.10465 40.6209 6.36919 40.8756C6.63373 41.1304 6.99252 41.2734 7.36664 41.2734H64.6296C65.0031 41.2725 65.3609 41.129 65.6246 40.8744C65.8883 40.6198 66.0364 40.2748 66.0364 39.9152V19.238C66.0345 18.8787 65.8851 18.5347 65.6209 18.281C65.3567 18.0272 64.999 17.8843 64.6258 17.8834H7.36664Z" fill="#612F7A"/>
<path d="M56.4406 33.0262H15.567C15.4423 33.0185 15.3172 33.0355 15.1996 33.0761C15.082 33.1168 14.9742 33.1802 14.8831 33.2626C14.7919 33.3449 14.7193 33.4443 14.6696 33.5547C14.6199 33.6651 14.5943 33.7842 14.5943 33.9045C14.5943 34.0249 14.6199 34.1439 14.6696 34.2543C14.7193 34.3648 14.7919 34.4642 14.8831 34.5465C14.9742 34.6288 15.082 34.6923 15.1996 34.7329C15.3172 34.7736 15.4423 34.7905 15.567 34.7828H56.4406C56.6724 34.7685 56.8899 34.6697 57.0487 34.5066C57.2076 34.3434 57.2961 34.1282 57.2961 33.9045C57.2961 33.6809 57.2076 33.4656 57.0487 33.3025C56.8899 33.1393 56.6724 33.0406 56.4406 33.0262V33.0262Z" fill="#612F7A"/>
<path d="M56.4406 36.7314H15.567C15.3246 36.7314 15.0921 36.8242 14.9206 36.9892C14.7492 37.1543 14.6529 37.3781 14.6529 37.6116C14.6529 37.845 14.7492 38.0688 14.9206 38.2339C15.0921 38.3989 15.3246 38.4917 15.567 38.4917H56.4406C56.6831 38.4917 56.9156 38.3989 57.087 38.2339C57.2584 38.0688 57.3547 37.845 57.3547 37.6116C57.3547 37.3781 57.2584 37.1543 57.087 36.9892C56.9156 36.8242 56.6831 36.7314 56.4406 36.7314V36.7314Z" fill="#612F7A"/>
<path d="M31.2378 25.8987H34.2885L32.8139 28.1696C32.6806 28.3759 32.6374 28.6245 32.6938 28.8614C32.7501 29.0982 32.9015 29.3039 33.1149 29.4336V29.4336C33.3258 29.5619 33.5807 29.6049 33.8243 29.5534C34.068 29.5018 34.2807 29.3599 34.4164 29.1584L35.9925 26.7317L37.5724 29.1584C37.6386 29.2606 37.725 29.3493 37.8268 29.4194C37.9286 29.4895 38.0438 29.5396 38.1657 29.5669C38.2876 29.5941 38.4139 29.598 38.5373 29.5782C38.6608 29.5585 38.779 29.5155 38.8852 29.4518C38.9914 29.388 39.0835 29.3048 39.1563 29.2067C39.2291 29.1087 39.2811 28.9979 39.3094 28.8805C39.3377 28.7631 39.3417 28.6415 39.3212 28.5227C39.3007 28.4038 39.2561 28.29 39.1899 28.1877V28.1877L37.7153 25.8987H40.766C41.0085 25.884 41.2362 25.7809 41.4025 25.6103C41.5689 25.4398 41.6615 25.2145 41.6615 24.9805C41.6615 24.7465 41.5689 24.5213 41.4025 24.3508C41.2362 24.1802 41.0085 24.0771 40.766 24.0624H37.7153L39.1899 21.7951C39.2672 21.6947 39.3224 21.5803 39.3523 21.4587C39.3821 21.3371 39.3859 21.2109 39.3635 21.0879C39.341 20.9648 39.2927 20.8474 39.2216 20.7429C39.1505 20.6384 39.058 20.549 38.9498 20.48C38.8416 20.411 38.7199 20.364 38.5922 20.3418C38.4645 20.3196 38.3335 20.3227 38.2071 20.3508C38.0806 20.379 37.9615 20.4317 37.8569 20.5056C37.7523 20.5796 37.6645 20.6733 37.5987 20.781C37.5878 20.7928 37.5789 20.8063 37.5724 20.8208L35.9963 23.2475L34.4164 20.8281C34.3527 20.7244 34.2684 20.6338 34.1683 20.5615C34.0682 20.4892 33.9543 20.4365 33.8331 20.4066C33.7119 20.3767 33.5857 20.37 33.4619 20.387C33.338 20.404 33.2188 20.4444 33.1111 20.5057C33.0034 20.5671 32.9093 20.6483 32.8342 20.7446C32.7591 20.841 32.7045 20.9507 32.6734 21.0674C32.6423 21.1841 32.6354 21.3055 32.6531 21.4248C32.6707 21.5441 32.7126 21.6588 32.7763 21.7625L32.7989 21.8024L34.2734 24.0696H31.2378C31.0038 24.0942 30.7874 24.2012 30.6302 24.37C30.473 24.5387 30.3861 24.7575 30.3861 24.9842C30.3861 25.2109 30.473 25.4296 30.6302 25.5984C30.7874 25.7671 31.0038 25.8741 31.2378 25.8987Z" fill="#612F7A"/>
<path d="M24.5422 48.6441C24.5422 47.8075 25.6406 46.902 26.0242 46.6521C26.1285 46.5853 26.218 46.4993 26.2877 46.3992C26.3575 46.299 26.406 46.1866 26.4307 46.0684C26.4553 45.9502 26.4555 45.8285 26.4313 45.7102C26.407 45.5919 26.3588 45.4794 26.2894 45.379C26.22 45.2786 26.1308 45.1924 26.0268 45.1253C25.9228 45.0581 25.806 45.0114 25.6833 44.9877C25.5605 44.9639 25.434 44.9637 25.3112 44.9871C25.1883 45.0104 25.0715 45.0568 24.9672 45.1236C24.7265 45.2758 22.6313 46.6811 22.6313 48.6441C22.692 49.5716 23.1154 50.4425 23.8162 51.0816C24.2638 51.5851 24.5422 51.9147 24.5422 52.3203C24.5422 53.157 23.44 54.0624 23.0375 54.3124C22.8386 54.4524 22.7035 54.661 22.6605 54.8947C22.6175 55.1283 22.67 55.3689 22.8069 55.5662C22.9438 55.7635 23.1546 55.9022 23.3953 55.9534C23.6359 56.0046 23.8878 55.9642 24.0983 55.8408C24.3353 55.6887 26.4305 54.2834 26.4305 52.3203C26.3714 51.3934 25.9477 50.5231 25.2456 49.8864C24.8205 49.383 24.5422 49.0534 24.5422 48.6441Z" fill="#612F7A"/>
<path d="M30.2673 48.644C30.2673 47.8073 31.3695 46.9019 31.772 46.6519C31.9709 46.5119 32.106 46.3033 32.149 46.0696C32.192 45.836 32.1395 45.5954 32.0026 45.3981C31.8657 45.2008 31.6549 45.0621 31.4142 45.0109C31.1736 44.9597 30.9217 45.0001 30.7112 45.1235C30.4742 45.2756 28.379 46.6809 28.379 48.644C28.4366 49.5715 28.8589 50.4431 29.5601 51.0815C30.0115 51.5849 30.2861 51.9145 30.2861 52.3202C30.2861 53.1568 29.1877 54.0623 28.7815 54.3122C28.5825 54.4522 28.4474 54.6609 28.4045 54.8945C28.3615 55.1282 28.4139 55.3688 28.5509 55.5661C28.6878 55.7634 28.8986 55.9021 29.1393 55.9533C29.3799 56.0044 29.6318 55.9641 29.8423 55.8406C30.083 55.6885 32.1782 54.2832 32.1782 52.3202C32.1176 51.3937 31.6941 50.5238 30.9933 49.8863C30.5494 49.3828 30.2711 49.0533 30.2711 48.644H30.2673Z" fill="#612F7A"/>
<path d="M35.9925 48.6441C35.9925 47.8075 37.0946 46.902 37.4971 46.6521C37.6013 46.5853 37.6909 46.4993 37.7606 46.3992C37.8304 46.299 37.8789 46.1866 37.9036 46.0684C37.9282 45.9502 37.9284 45.8285 37.9041 45.7102C37.8799 45.5919 37.8317 45.4794 37.7623 45.379C37.6929 45.2786 37.6037 45.1924 37.4996 45.1253C37.3956 45.0581 37.2789 45.0114 37.1561 44.9877C37.0334 44.9639 36.9069 44.9637 36.7841 44.9871C36.6612 45.0104 36.5443 45.0568 36.4401 45.1237C36.1994 45.2758 34.1041 46.6811 34.1041 48.6441C34.1649 49.5716 34.5883 50.4426 35.289 51.0816C35.7367 51.5851 36.015 51.9147 36.015 52.3203C36.015 53.157 34.9167 54.0624 34.5104 54.3124C34.4003 54.3769 34.305 54.4622 34.2301 54.5631C34.1551 54.6641 34.1022 54.7786 34.0744 54.8997C34.0466 55.0208 34.0446 55.1462 34.0684 55.2681C34.0922 55.39 34.1414 55.506 34.213 55.6092C34.2846 55.7123 34.3771 55.8005 34.485 55.8683C34.5929 55.9362 34.7139 55.9823 34.8408 56.0039C34.9677 56.0256 35.0978 56.0223 35.2233 55.9942C35.3488 55.9662 35.4671 55.914 35.5712 55.8408C35.8082 55.6887 37.9034 54.2834 37.9034 52.3203C37.8444 51.3924 37.4208 50.5208 36.7185 49.8828C36.2708 49.383 35.9962 49.0534 35.9962 48.6441H35.9925Z" fill="#612F7A"/>
<path d="M41.7214 48.6441C41.7214 47.8075 42.8198 46.902 43.2035 46.6521C43.3077 46.5853 43.3973 46.4993 43.467 46.3992C43.5368 46.299 43.5853 46.1866 43.6099 46.0684C43.6346 45.9502 43.6348 45.8285 43.6105 45.7102C43.5863 45.5919 43.5381 45.4794 43.4687 45.379C43.3993 45.2786 43.3101 45.1924 43.206 45.1253C43.102 45.0581 42.9853 45.0114 42.8625 44.9877C42.7398 44.9639 42.6133 44.9637 42.4905 44.9871C42.3676 45.0104 42.2507 45.0568 42.1465 45.1236C41.9058 45.2758 39.8105 46.6811 39.8105 48.6441C39.8713 49.5716 40.2947 50.4425 40.9955 51.0816C41.4468 51.5851 41.7214 51.9147 41.7214 52.3203C41.7214 53.157 40.6193 54.0624 40.2168 54.3124C40.0178 54.4524 39.8827 54.661 39.8398 54.8947C39.7968 55.1283 39.8492 55.3689 39.9862 55.5662C40.1231 55.7635 40.3339 55.9022 40.5746 55.9534C40.8152 56.0046 41.0671 55.9642 41.2776 55.8408C41.5146 55.6887 43.6098 54.2834 43.6098 52.3203C43.5505 51.3942 43.1284 50.5243 42.4286 49.8864C41.981 49.383 41.7064 49.0534 41.7064 48.6441H41.7214Z" fill="#612F7A"/>
<path d="M47.4466 48.644C47.4466 47.8073 48.5487 46.9019 48.9512 46.6519C49.1502 46.5119 49.2853 46.3033 49.3283 46.0696C49.3712 45.836 49.3188 45.5954 49.1819 45.3981C49.0449 45.2008 48.8341 45.0621 48.5935 45.0109C48.3528 44.9597 48.1009 45.0001 47.8905 45.1235C47.6535 45.2756 45.5583 46.6809 45.5583 48.644C45.6184 49.5709 46.0403 50.4416 46.7394 51.0815C47.1908 51.5849 47.4654 51.9145 47.4654 52.3202C47.4654 53.1568 46.367 54.0623 45.9608 54.3122C45.7618 54.4522 45.6267 54.6609 45.5837 54.8945C45.5407 55.1282 45.5932 55.3688 45.7301 55.5661C45.8671 55.7634 46.0779 55.9021 46.3185 55.9533C46.5592 56.0044 46.811 55.9641 47.0215 55.8406C47.2623 55.6885 49.3575 54.2832 49.3575 52.3202C49.2969 51.3937 48.8734 50.5238 48.1726 49.8863C47.7212 49.3828 47.4503 49.0533 47.4503 48.644H47.4466Z" fill="#612F7A"/>
</g>
<defs>
<clipPath id="clip0">
<rect width="64" height="40" fill="white" transform="translate(4 16)"/>
</clipPath>
</defs>
</svg>
