<svg width="72" height="72" viewBox="0 0 72 72" fill="none" xmlns="http://www.w3.org/2000/svg">
<g clip-path="url(#clip0)">
<path d="M12.1155 49.7959C9.51304 49.7959 7.39594 51.913 7.39594 54.5154C7.39594 57.1178 9.51304 59.2349 12.1155 59.2349C14.7179 59.2349 16.835 57.1178 16.835 54.5154C16.835 51.913 14.7179 49.7959 12.1155 49.7959ZM12.1155 57.0567C10.7143 57.0567 9.57422 55.9166 9.57422 54.5154C9.57422 53.1142 10.7143 51.9742 12.1155 51.9742C13.5166 51.9742 14.6567 53.1142 14.6567 54.5154C14.6567 55.9166 13.5166 57.0567 12.1155 57.0567Z" fill="#2676BC"/>
<path d="M61.5712 21.7381V20.1959C61.5712 14.0969 56.6092 9.13477 50.5101 9.13477C44.4111 9.13477 39.449 14.0969 39.449 20.1959V36.8784C39.449 40.2815 36.6803 43.0501 33.2772 43.0501H32.3359C30.2482 40.5248 27.2862 38.7248 23.8449 38.1262L8.07947 35.3844C6.0698 35.0345 4.02103 35.587 2.45897 36.9003C0.896344 38.2142 0 40.1385 0 42.18V55.6037C0 57.8057 1.79156 59.5972 3.99347 59.5972H5.49703C7.02492 61.582 9.42258 62.8646 12.1154 62.8646C14.8081 62.8646 17.2058 61.5821 18.7338 59.5972H31.5845C33.7864 59.5972 35.578 57.8057 35.578 55.6037V52.075C35.578 49.5962 34.9383 47.2523 33.807 45.2094C38.1652 44.9351 41.6274 41.3043 41.6274 36.8781V20.1958C41.6274 15.2978 45.6121 11.3129 50.5102 11.3129C55.4084 11.3129 59.3931 15.2978 59.3931 20.1959V21.7381C58.1255 22.1877 57.2148 23.3984 57.2148 24.8181V39.9205C57.2148 41.3403 58.1255 42.5509 59.3931 43.0005V54.0791H61.5714V43.0005C62.839 42.5509 63.7497 41.3403 63.7497 39.9205V24.8181C63.7495 23.3984 62.8388 22.1877 61.5712 21.7381ZM10.4933 38.0149L22.4505 40.0942V41.8533C22.4505 42.4009 22.2069 42.9137 21.7822 43.2598C21.3577 43.606 20.8056 43.7415 20.2693 43.6314L11.9451 41.9209C11.1039 41.7473 10.4934 40.9994 10.4934 40.1427V38.0149H10.4933ZM3.99347 57.4192C2.9925 57.4192 2.17828 56.605 2.17828 55.604V55.5315H3.8295C3.90952 56.1868 4.06406 56.8195 4.28723 57.4192H3.99347V57.4192ZM12.1154 60.6865C8.71228 60.6865 5.94366 57.918 5.94366 54.5147C5.94366 51.1115 8.71214 48.343 12.1154 48.343C15.5185 48.343 18.2872 51.1115 18.2872 54.5147C18.2872 57.918 15.5184 60.6865 12.1154 60.6865ZM33.3997 55.6039C33.3997 56.6047 32.5855 57.4191 31.5845 57.4191H19.9434C20.1666 56.8192 20.3212 56.1866 20.4012 55.5313H33.3997V55.6039ZM33.3997 53.3529H20.3828C19.8153 49.2969 16.3253 46.1647 12.1154 46.1647C7.90566 46.1647 4.41534 49.2969 3.84806 53.3529H2.17828V42.18C2.17828 40.7831 2.79169 39.4663 3.86086 38.5672C4.92933 37.6686 6.33038 37.291 7.70583 37.5301L8.31487 37.6359V40.1427C8.31487 42.0275 9.6563 43.6727 11.5054 44.0542L19.8307 45.7649C20.1002 45.8202 20.3712 45.8475 20.6402 45.8475C21.5506 45.8475 22.4377 45.5358 23.1587 44.948C24.0929 44.1864 24.6285 43.0583 24.6285 41.8533V40.5335C29.7751 41.9575 33.3996 46.6359 33.3996 52.0752V53.3529H33.3997ZM61.5712 39.9207C61.5712 40.5213 61.0827 41.0098 60.4821 41.0098C59.8815 41.0098 59.393 40.5213 59.393 39.9207V24.8181C59.393 24.2175 59.8815 23.729 60.4821 23.729C61.0827 23.729 61.5712 24.2175 61.5712 24.8181V39.9207Z" fill="#2676BC"/>
<path d="M67.7756 55.8945H53.1887L48.9642 62.8649H72L67.7756 55.8945ZM54.4158 58.0727H66.5488L68.133 60.6866H52.8316L54.4158 58.0727Z" fill="#2676BC"/>
</g>
<defs>
<clipPath id="clip0">
<rect width="72" height="72" fill="white"/>
</clipPath>
</defs>
</svg>
