<svg width="72" height="72" viewBox="0 0 72 72" fill="none" xmlns="http://www.w3.org/2000/svg">
<path d="M58.9785 53.2761C58.5792 52.9735 58.1142 52.7694 57.6212 52.6802C57.1283 52.591 56.6212 52.6193 56.1412 52.7627L43.3359 56.5334H36.2426L31.2026 53.7334H40.6666C40.9141 53.7334 41.1515 53.6351 41.3266 53.46C41.5016 53.285 41.5999 53.0476 41.5999 52.8001V50.0001C41.5981 49.7526 41.5012 49.5154 41.3293 49.3374L39.4626 47.4708C39.3317 47.3424 39.1663 47.2549 38.9866 47.2188L24.9866 44.4188C24.925 44.4079 24.8626 44.4017 24.8 44.4001H19.2C19.0816 44.3983 18.9641 44.4205 18.8546 44.4654L15.4666 45.8188V44.4001C15.4673 44.178 15.3887 43.9629 15.245 43.7936C15.1013 43.6242 14.9019 43.5116 14.6827 43.4761L9.08266 42.5428C8.94865 42.5238 8.81215 42.5331 8.68194 42.5701C8.55174 42.6071 8.43072 42.6709 8.32667 42.7574C8.22474 42.8455 8.14285 42.9544 8.08651 43.0767C8.03016 43.1991 8.00067 43.3321 8 43.4668V62.1334C8 62.3809 8.09833 62.6183 8.27337 62.7933C8.4484 62.9684 8.6858 63.0667 8.93333 63.0667C8.98329 63.0683 9.03329 63.0651 9.08266 63.0574L14.6827 62.1241C14.9019 62.0885 15.1013 61.9759 15.245 61.8066C15.3887 61.6372 15.4673 61.4222 15.4666 61.2001V60.2667H18.1173L29.1679 63.9534C29.2649 63.9825 29.3654 63.9982 29.4666 64H43.4666C43.5718 64.0004 43.6762 63.9814 43.7746 63.944L58.1199 58.8854C58.7473 58.6637 59.2907 58.253 59.6751 57.7098C60.0595 57.1665 60.2662 56.5175 60.2665 55.8521C60.2694 55.3517 60.1543 54.8577 59.9305 54.4101C59.7067 53.9625 59.3806 53.574 58.9785 53.2761V53.2761ZM13.6 60.4067L9.86666 61.0321V44.5681L13.6 45.1934V60.4067ZM57.5039 57.1214L43.3079 62.1334H29.6159L18.5653 58.4467C18.4684 58.4176 18.3679 58.4019 18.2666 58.4001H15.4666V47.8348L19.3773 46.2668H24.7066L38.3426 48.9921L39.7333 50.3827V51.8667H27.6C27.3941 51.8674 27.1942 51.936 27.0314 52.062C26.8687 52.1881 26.7521 52.3644 26.6999 52.5635C26.6478 52.7626 26.6629 52.9734 26.7429 53.1631C26.823 53.3527 26.9635 53.5106 27.1426 53.6121L35.5426 58.2787C35.6812 58.36 35.8393 58.4019 35.9999 58.4001H43.4666C43.5552 58.4021 43.6434 58.3895 43.7279 58.3627L56.6732 54.5547C56.8736 54.4938 57.0857 54.4815 57.2918 54.5188C57.4979 54.5562 57.6922 54.6421 57.8585 54.7694C58.054 54.9155 58.2062 55.112 58.2989 55.3377C58.3916 55.5635 58.4213 55.8102 58.3849 56.0515C58.3485 56.2928 58.2474 56.5198 58.0922 56.7082C57.9371 56.8966 57.7337 57.0394 57.5039 57.1214V57.1214Z" fill="#39A3C6"/>
<path d="M36.0001 43.4674C44.234 43.4674 50.9334 34.6745 50.9334 23.8675V12.6675C50.9334 12.4619 50.8655 12.2621 50.7403 12.0991C50.6151 11.9361 50.4395 11.8189 50.2409 11.7659L36.2409 8.03257C36.0832 7.99044 35.9171 7.99044 35.7593 8.03257L21.7594 11.7659C21.5608 11.8189 21.3852 11.9361 21.26 12.0991C21.1348 12.2621 21.0669 12.4619 21.0668 12.6675V23.8675C21.0668 34.6745 27.7663 43.4674 36.0001 43.4674ZM22.9335 13.3852L36.0001 9.90017L49.0668 13.3852V23.8675C49.0668 33.646 43.2054 41.6008 36.0001 41.6008C28.7948 41.6008 22.9335 33.646 22.9335 23.8675V13.3852Z" fill="#39A3C6"/>
<path d="M32.2663 29.4663V32.2663C32.2663 32.7614 32.463 33.2362 32.8131 33.5862C33.1631 33.9363 33.6379 34.133 34.133 34.133H37.8663C38.3614 34.133 38.8362 33.9363 39.1863 33.5862C39.5363 33.2362 39.733 32.7614 39.733 32.2663V29.4663H42.533C43.0281 29.4663 43.5028 29.2696 43.8529 28.9196C44.203 28.5695 44.3996 28.0947 44.3996 27.5997V23.8663C44.3996 23.3713 44.203 22.8965 43.8529 22.5464C43.5028 22.1963 43.0281 21.9997 42.533 21.9997H39.733V19.1997C39.733 18.7046 39.5363 18.2298 39.1863 17.8797C38.8362 17.5297 38.3614 17.333 37.8663 17.333H34.133C33.6379 17.333 33.1631 17.5297 32.8131 17.8797C32.463 18.2298 32.2663 18.7046 32.2663 19.1997V21.9997H29.4663C28.9713 21.9997 28.4965 22.1963 28.1464 22.5464C27.7964 22.8965 27.5997 23.3713 27.5997 23.8663V27.5997C27.5997 28.0947 27.7964 28.5695 28.1464 28.9196C28.4965 29.2696 28.9713 29.4663 29.4663 29.4663H32.2663ZM29.4663 23.8663H32.2663C32.7614 23.8663 33.2362 23.6697 33.5863 23.3196C33.9363 22.9695 34.133 22.4947 34.133 21.9997V19.1997H37.8663V21.9997C37.8663 22.4947 38.063 22.9695 38.4131 23.3196C38.7631 23.6697 39.2379 23.8663 39.733 23.8663H42.533V27.5997H39.733C39.2379 27.5997 38.7631 27.7963 38.4131 28.1464C38.063 28.4965 37.8663 28.9712 37.8663 29.4663V32.2663H34.133V29.4663C34.133 28.9712 33.9363 28.4965 33.5863 28.1464C33.2362 27.7963 32.7614 27.5997 32.2663 27.5997H29.4663V23.8663Z" fill="#39A3C6"/>
<path d="M54.6667 13.6H56.5334V11.7333H58.4V9.86666H56.5334V8H54.6667V9.86666H52.8V11.7333H54.6667V13.6Z" fill="#39A3C6"/>
<path d="M63.9998 15.4663H62.1331V13.5996H60.2664V15.4663H58.3998V17.3329H60.2664V19.1996H62.1331V17.3329H63.9998V15.4663Z" fill="#39A3C6"/>
<path d="M50.9336 36.9336V38.8003H49.0669V40.6669H50.9336V42.5336H52.8003V40.6669H54.6669V38.8003H52.8003V36.9336H50.9336Z" fill="#39A3C6"/>
<path d="M58.4 31.333H56.5333V33.1997H54.6667V35.0663H56.5333V36.933H58.4V35.0663H60.2667V33.1997H58.4V31.333Z" fill="#39A3C6"/>
<path d="M15.4666 13.6H17.3333V11.7333H19.2V9.86666H17.3333V8H15.4666V9.86666H13.6V11.7333H15.4666V13.6Z" fill="#39A3C6"/>
<path d="M9.86666 19.1996H11.7333V17.3329H13.6V15.4663H11.7333V13.5996H9.86666V15.4663H8V17.3329H9.86666V19.1996Z" fill="#39A3C6"/>
<path d="M19.1997 36.9336V38.8003H17.3331V40.6669H19.1997V42.5336H21.0664V40.6669H22.9331V38.8003H21.0664V36.9336H19.1997Z" fill="#39A3C6"/>
<path d="M15.4671 36.933V35.0663H17.3338V33.1997H15.4671V31.333H13.6004V33.1997H11.7338V35.0663H13.6004V36.933H15.4671Z" fill="#39A3C6"/>
</svg>
