<svg width="40" height="40" viewBox="0 0 40 40" fill="none" xmlns="http://www.w3.org/2000/svg">
<path d="M34.9819 0H5.01809C2.24668 0 0 2.24668 0 5.01809V34.9819C0 37.7533 2.24668 40 5.01809 40H34.9819C37.7533 40 40 37.7533 40 34.9819V5.01809C40 2.24668 37.7533 0 34.9819 0Z" fill="#D26132"/>
<path d="M5.41735 4.40679L5.42101 5.23184C5.57811 4.95205 5.8017 4.71526 6.07201 4.54236C6.35602 4.37019 6.68353 4.28328 7.01554 4.29198C7.35386 4.29198 7.63397 4.34185 7.85586 4.4416C8.0644 4.53139 8.24662 4.67284 8.38533 4.8526C8.51949 5.0342 8.61319 5.24244 8.66014 5.46329C8.71348 5.71029 8.7397 5.96237 8.73831 6.21506V9.4658H7.86807V6.13017C7.86933 5.98542 7.84874 5.8413 7.807 5.70268C7.76964 5.5762 7.70734 5.45847 7.62379 5.35642C7.54121 5.25661 7.43672 5.1772 7.31844 5.12436C7.18207 5.06625 7.03487 5.03794 6.88668 5.0413C6.67963 5.0377 6.47483 5.08466 6.29003 5.1781C6.11664 5.26782 5.96379 5.39259 5.84117 5.54451C5.71582 5.69821 5.61958 5.87351 5.5572 6.06177C5.49121 6.2586 5.45779 6.46488 5.45826 6.67247V9.4658H4.5752V4.40679H5.41735Z" fill="white"/>
<path d="M11.7774 6.91304C11.775 6.55778 11.8238 6.20402 11.9222 5.86265C12.0104 5.55003 12.1622 5.25898 12.368 5.00767C12.5744 4.76035 12.8353 4.56409 13.1301 4.43423C13.8275 4.15604 14.605 4.15604 15.3024 4.43423C15.596 4.56472 15.8557 4.76091 16.0615 5.00767C16.2668 5.2595 16.4188 5.55036 16.5085 5.86265C16.6079 6.20426 16.6573 6.55848 16.6551 6.91426C16.6571 7.26562 16.6077 7.61538 16.5085 7.95245C16.4179 8.26251 16.2659 8.55119 16.0615 8.80132C15.8548 9.04827 15.5946 9.24481 15.3005 9.37598C14.6035 9.65612 13.8253 9.65612 13.1283 9.37598C12.8343 9.24496 12.5742 9.04838 12.368 8.80132C12.1628 8.55099 12.011 8.26126 11.9222 7.95001C11.8239 7.61279 11.7751 7.26307 11.7774 6.91182V6.91304ZM12.6898 6.91182C12.6857 7.18657 12.7219 7.46043 12.7973 7.72466C12.8587 7.94119 12.9625 8.14338 13.1026 8.31948C13.2319 8.47839 13.3973 8.60404 13.5851 8.68589C13.7841 8.7701 13.9986 8.8117 14.2147 8.80803C14.4236 8.8109 14.6308 8.76926 14.8224 8.68589C15.0081 8.60243 15.172 8.477 15.3011 8.31948C15.4433 8.14349 15.5497 7.94144 15.6144 7.72466C15.6924 7.46089 15.7298 7.18683 15.7256 6.91182C15.729 6.64188 15.6916 6.37297 15.6144 6.11425C15.5489 5.89502 15.4426 5.69011 15.3011 5.51027C15.1715 5.34716 15.0061 5.21602 14.8177 5.12697C14.6294 5.03792 14.423 4.99334 14.2147 4.99668C13.9986 4.99431 13.7846 5.03978 13.5881 5.12981C13.4 5.21784 13.2349 5.34828 13.1057 5.51088C12.9662 5.69081 12.8625 5.89585 12.8003 6.11486C12.7257 6.37403 12.6895 6.64275 12.6929 6.91243" fill="white"/>
<path d="M20.5801 2.51001V5.05112C20.7414 4.80263 20.9696 4.60471 21.2384 4.48012C21.5207 4.35418 21.8271 4.29164 22.1361 4.29691C22.3744 4.29451 22.6116 4.32828 22.8397 4.39706C23.248 4.52127 23.6082 4.76792 23.8717 5.10364C24.0025 5.27027 24.1119 5.45266 24.1972 5.64655C24.2852 5.84753 24.3506 6.05768 24.3921 6.27312C24.5001 6.83903 24.4726 7.42246 24.3121 7.97574C24.2228 8.28063 24.0753 8.56535 23.8778 8.81423C23.6847 9.05453 23.4396 9.24789 23.1609 9.37973C22.8476 9.52371 22.5059 9.5949 22.1612 9.58798C22.0282 9.58716 21.8955 9.57613 21.7642 9.555C21.6179 9.5318 21.4746 9.49269 21.3367 9.43836C21.1908 9.38105 21.0524 9.3062 20.9245 9.21546C20.7883 9.11866 20.6702 8.99854 20.5758 8.86064V9.47134H19.6934V2.51001H20.5801ZM23.5181 6.8887C23.5185 6.66498 23.4904 6.44212 23.4345 6.22549C23.3829 6.01724 23.2933 5.82033 23.1701 5.64471C23.049 5.47335 22.8902 5.3321 22.7059 5.23188C22.4947 5.1224 22.2591 5.06859 22.0213 5.07555C21.7812 5.06785 21.5434 5.12435 21.3325 5.23921C21.1482 5.34431 20.9909 5.49062 20.8726 5.6667C20.7521 5.84789 20.6654 6.04942 20.6167 6.26152C20.5649 6.48064 20.5386 6.70505 20.5386 6.93023C20.5367 7.16704 20.5632 7.40322 20.6173 7.63375C20.667 7.84756 20.7567 8.05002 20.8818 8.2304C21.0055 8.40458 21.169 8.54674 21.3587 8.64507C21.5816 8.75218 21.8273 8.80332 22.0745 8.79408C22.3138 8.80251 22.5511 8.74662 22.7615 8.63224C22.9422 8.52821 23.0947 8.38142 23.2055 8.20475C23.3208 8.01704 23.4017 7.81022 23.4443 7.59406C23.492 7.36137 23.5157 7.1244 23.5151 6.88687" fill="white"/>
<path d="M28.3654 2.5094H27.4951V9.46828H28.3654V2.5094Z" fill="white"/>
<path d="M35.9697 7.9122C35.9245 8.15524 35.836 8.38817 35.7083 8.59984C35.5853 8.80251 35.4266 8.98127 35.2399 9.12748C35.0474 9.2763 34.8307 9.39075 34.5993 9.46581C34.3464 9.54835 34.0818 9.5896 33.8158 9.58794C33.453 9.59596 33.0926 9.52836 32.7574 9.38947C32.467 9.26546 32.2091 9.07612 32.0038 8.83618C31.7972 8.58858 31.6438 8.30108 31.5532 7.99159C31.4502 7.64441 31.3997 7.28376 31.4035 6.92165C31.3994 6.56482 31.4566 6.20993 31.5727 5.87247C31.6777 5.56677 31.8416 5.28461 32.0551 5.04193C32.2619 4.80842 32.5156 4.62114 32.7996 4.4923C33.3578 4.25295 33.9849 4.22924 34.5596 4.42574C34.7808 4.50747 34.9854 4.6285 35.1636 4.78299C35.3327 4.93131 35.477 5.10573 35.5911 5.29964C35.7055 5.49394 35.7972 5.70068 35.8647 5.91583C35.9316 6.12988 35.9786 6.34965 36.0051 6.57233C36.0313 6.78175 36.0425 6.99277 36.0387 7.20379H32.3135C32.312 7.41273 32.3431 7.62063 32.4057 7.81998C32.4638 8.00641 32.5598 8.17879 32.6878 8.32625C32.8197 8.47565 32.9833 8.59374 33.1666 8.6719C33.3811 8.76089 33.6117 8.80416 33.8439 8.79893C33.9917 8.8007 34.1389 8.78011 34.2805 8.73786C34.4115 8.69898 34.5353 8.63896 34.6469 8.56014C34.7551 8.48365 34.8498 8.38975 34.9272 8.28228C35.0083 8.17006 35.0702 8.04522 35.1104 7.91281L35.9697 7.9122ZM33.7138 5.07857C33.5207 5.07587 33.3292 5.1133 33.1513 5.1885C32.9879 5.2581 32.8405 5.36058 32.7184 5.48957C32.5961 5.61919 32.4987 5.77007 32.4307 5.93477C32.3582 6.10943 32.3169 6.29545 32.3086 6.48439H35.1147C35.1048 6.2938 35.0618 6.10638 34.9877 5.93049C34.9186 5.76454 34.8182 5.61341 34.6921 5.48529C34.5674 5.35946 34.4195 5.25889 34.2567 5.18911C34.0858 5.11603 33.9015 5.07922 33.7156 5.08101" fill="white"/>
<path d="M7.70605 36.7865V13.0511H12.1324V36.7865H7.70605Z" fill="white"/>
<path d="M16.6523 36.7864V13.0511H24.5065C25.916 13.0511 27.128 13.204 28.1426 13.5098C29.1572 13.8155 30.0111 14.2396 30.7045 14.7819C31.383 15.3074 31.9499 15.963 32.3717 16.7104C32.7979 17.4742 33.1221 18.2905 33.336 19.1386C33.566 20.047 33.7138 20.9743 33.7775 21.9093C33.8471 22.8815 33.8822 23.8672 33.8826 24.8663C33.8826 25.8348 33.8341 26.803 33.7372 27.7707C33.6455 28.71 33.4704 29.6393 33.2138 30.5476C32.9724 31.4064 32.6292 32.2332 32.1915 33.0105C31.7674 33.7631 31.2128 34.4343 30.5536 34.9928C29.89 35.553 29.0979 35.9921 28.1774 36.3101C27.2569 36.6281 26.1764 36.7868 24.9358 36.7864H16.6523ZM21.0787 33.1033H24.785C25.6522 33.1033 26.386 32.9389 26.9866 32.6099C27.5871 32.2809 28.0732 31.7659 28.4449 31.0648C28.817 30.3638 29.0861 29.4691 29.2523 28.3808C29.4184 27.2926 29.5016 25.9857 29.502 24.4602C29.502 23.9179 29.4925 23.3503 29.4733 22.7575C29.4544 22.1735 29.3961 21.5914 29.2987 21.0152C29.2064 20.4615 29.0585 19.9185 28.8571 19.3944C28.6693 18.8987 28.3917 18.4418 28.0382 18.0466C27.6711 17.6464 27.2211 17.3311 26.7197 17.1227C26.1904 16.8947 25.5455 16.7805 24.785 16.7801H21.0787V33.1033Z" fill="white"/>
</svg>
