<svg width="400" height="300" viewBox="0 0 400 300" fill="none" xmlns="http://www.w3.org/2000/svg">
<rect width="400" height="300" fill="#EEF9EB"/>
<g clip-path="url(#clip0)">
<path d="M258.299 239.818H139.23C136.093 239.815 133.085 238.575 130.867 236.371C128.648 234.167 127.401 231.179 127.397 228.062V71.9385C127.401 68.8215 128.648 65.833 130.867 63.6289C133.085 61.4248 136.093 60.1851 139.23 60.1818H258.299C261.436 60.1851 264.444 61.4248 266.662 63.6289C268.881 65.833 270.128 68.8215 270.132 71.9385V228.062C270.128 231.179 268.881 234.167 266.662 236.371C264.444 238.575 261.436 239.815 258.299 239.818V239.818ZM139.23 65.625C137.544 65.625 135.926 66.2898 134.733 67.4734C133.539 68.6571 132.867 70.263 132.864 71.9385V228.062C132.867 229.737 133.539 231.343 134.733 232.527C135.926 233.71 137.544 234.375 139.23 234.375H258.299C259.985 234.375 261.603 233.71 262.797 232.527C263.99 231.343 264.662 229.737 264.666 228.062V71.9385C264.662 70.263 263.99 68.6571 262.797 67.4734C261.603 66.2898 259.985 65.625 258.299 65.625H139.23Z" fill="#41A02E"/>
<path d="M258.299 240.958H139.23C135.789 240.955 132.489 239.595 130.055 237.177C127.622 234.759 126.253 231.481 126.25 228.062V71.9385C126.253 68.5191 127.622 65.2406 130.055 62.8227C132.489 60.4047 135.789 59.0449 139.23 59.0417H258.299C261.741 59.0449 265.04 60.4047 267.474 62.8227C269.907 65.2406 271.276 68.5191 271.279 71.9385V228.062C271.276 231.481 269.907 234.759 267.474 237.177C265.04 239.595 261.741 240.955 258.299 240.958V240.958ZM139.23 61.3219C136.397 61.3252 133.681 62.4447 131.678 64.435C129.675 66.4253 128.548 69.1238 128.545 71.9385V228.062C128.548 230.875 129.675 233.572 131.679 235.561C133.683 237.549 136.399 238.666 139.23 238.666H258.299C261.13 238.663 263.844 237.545 265.847 235.557C267.85 233.569 268.978 230.874 268.984 228.062V71.9385C268.978 69.1248 267.85 66.4282 265.847 64.4386C263.845 62.449 261.131 61.3284 258.299 61.3219H139.23ZM258.299 235.515H139.23C137.24 235.515 135.33 234.73 133.921 233.333C132.512 231.935 131.719 230.039 131.716 228.062V71.9385C131.719 69.9594 132.512 68.0623 133.921 66.6629C135.329 65.2635 137.238 64.4758 139.23 64.4726H258.299C260.291 64.4758 262.2 65.2635 263.609 66.6629C265.017 68.0623 265.81 69.9594 265.813 71.9385V228.062C265.81 230.039 265.017 231.935 263.608 233.333C262.199 234.73 260.29 235.515 258.299 235.515V235.515ZM139.23 66.7773C137.848 66.7773 136.523 67.322 135.544 68.2919C134.566 69.2617 134.014 70.5776 134.011 71.9508V228.062C134.014 229.435 134.566 230.751 135.544 231.72C136.523 232.69 137.848 233.235 139.23 233.235H258.299C259.68 233.235 261.004 232.69 261.981 231.72C262.957 230.749 263.506 229.434 263.506 228.062V71.9385C263.503 70.5686 262.953 69.2558 261.976 68.2883C261 67.3207 259.678 66.7773 258.299 66.7773H139.23Z" fill="#41A02E"/>
<path d="M198.765 206.007C189.358 206.007 180.163 203.236 172.341 198.044C164.52 192.852 158.423 185.472 154.822 176.838C151.221 168.204 150.278 158.703 152.111 149.536C153.944 140.369 158.472 131.948 165.122 125.338C171.772 118.728 180.245 114.225 189.47 112.398C198.695 110.572 208.258 111.504 216.95 115.078C225.642 118.651 233.073 124.704 238.302 132.473C243.532 140.242 246.326 149.377 246.331 158.723C246.324 171.257 241.311 183.276 232.393 192.142C223.475 201.007 211.38 205.994 198.765 206.007V206.007ZM198.765 116.918C190.437 116.918 182.297 119.372 175.373 123.969C168.449 128.567 163.053 135.101 159.867 142.746C156.682 150.39 155.849 158.802 157.476 166.917C159.102 175.031 163.114 182.484 169.004 188.333C174.895 194.182 182.398 198.164 190.567 199.775C198.735 201.387 207.2 200.555 214.893 197.385C222.585 194.215 229.158 188.85 233.781 181.968C238.404 175.086 240.869 166.997 240.864 158.723C240.845 147.637 236.402 137.012 228.511 129.175C220.619 121.339 209.922 116.931 198.765 116.918Z" fill="#41A02E"/>
<path d="M198.765 207.147C189.131 207.147 179.714 204.309 171.703 198.992C163.693 193.675 157.449 186.117 153.762 177.275C150.074 168.432 149.108 158.702 150.986 149.314C152.863 139.926 157.5 131.302 164.31 124.532C171.121 117.762 179.798 113.15 189.246 111.28C198.694 109.41 208.488 110.365 217.389 114.024C226.291 117.684 233.901 123.884 239.256 131.84C244.612 139.796 247.473 149.151 247.478 158.723C247.471 171.559 242.338 183.869 233.204 192.948C224.071 202.027 211.684 207.134 198.765 207.147V207.147ZM198.765 112.627C189.583 112.627 180.607 115.333 172.973 120.402C165.339 125.47 159.39 132.675 155.877 141.104C152.365 149.532 151.447 158.807 153.24 167.754C155.033 176.701 159.456 184.918 165.951 191.367C172.445 197.816 180.718 202.207 189.724 203.984C198.73 205.76 208.064 204.844 216.545 201.349C225.027 197.855 232.274 191.94 237.372 184.352C242.469 176.764 245.188 167.845 245.183 158.723C245.16 146.5 240.261 134.785 231.56 126.145C222.86 117.504 211.066 112.644 198.765 112.627ZM198.765 201.716C190.208 201.716 181.845 199.195 174.731 194.47C167.618 189.746 162.075 183.032 158.803 175.176C155.532 167.321 154.679 158.679 156.353 150.342C158.027 142.005 162.152 134.349 168.206 128.342C174.26 122.335 181.972 118.247 190.365 116.596C198.759 114.945 207.456 115.805 215.357 119.066C223.259 122.328 230.009 127.845 234.753 134.919C239.498 141.994 242.024 150.307 242.012 158.808C241.982 170.19 237.415 181.096 229.309 189.138C221.203 197.18 210.22 201.703 198.765 201.716V201.716ZM198.765 118.071C190.663 118.068 182.742 120.453 176.006 124.924C169.269 129.396 164.018 135.752 160.917 143.188C157.817 150.625 157.006 158.809 158.588 166.703C160.17 174.598 164.073 181.849 169.803 187.539C175.534 193.23 182.834 197.103 190.781 198.67C198.728 200.237 206.964 199.426 214.447 196.342C221.93 193.257 228.324 188.036 232.82 181.339C237.316 174.643 239.712 166.772 239.704 158.723C239.685 147.943 235.364 137.61 227.69 129.99C220.016 122.37 209.614 118.083 198.765 118.071V118.071Z" fill="#41A02E"/>
<path d="M255.769 89.3468H141.76C141.033 89.3468 140.336 89.0601 139.823 88.5497C139.309 88.0393 139.021 87.3471 139.021 86.6253C139.021 85.9035 139.309 85.2112 139.823 84.7008C140.336 84.1904 141.033 83.9037 141.76 83.9037H255.769C256.496 83.9037 257.193 84.1904 257.706 84.7008C258.22 85.2112 258.509 85.9035 258.509 86.6253C258.509 87.3471 258.22 88.0393 257.706 88.5497C257.193 89.0601 256.496 89.3468 255.769 89.3468V89.3468Z" fill="#41A02E"/>
<path d="M255.769 90.487H141.76C140.729 90.487 139.74 90.0802 139.011 89.3559C138.283 88.6317 137.873 87.6495 137.873 86.6253C137.873 85.6011 138.283 84.6189 139.011 83.8947C139.74 83.1705 140.729 82.7636 141.76 82.7636H255.769C256.8 82.7636 257.789 83.1705 258.518 83.8947C259.247 84.6189 259.656 85.6011 259.656 86.6253C259.656 87.6495 259.247 88.6317 258.518 89.3559C257.789 90.0802 256.8 90.487 255.769 90.487V90.487ZM141.76 85.0439C141.363 85.0786 140.994 85.2596 140.726 85.5512C140.457 85.8428 140.308 86.2238 140.308 86.6192C140.308 87.0145 140.457 87.3955 140.726 87.6871C140.994 87.9787 141.363 88.1597 141.76 88.1945H255.769C256.166 88.1597 256.535 87.9787 256.803 87.6871C257.072 87.3955 257.221 87.0145 257.221 86.6192C257.221 86.2238 257.072 85.8428 256.803 85.5512C256.535 85.2596 256.166 85.0786 255.769 85.0439H141.76Z" fill="#41A02E"/>
<path d="M149.015 78.0683H141.76C141.385 78.0933 141.01 78.0416 140.657 77.9164C140.303 77.7913 139.979 77.5953 139.705 77.3407C139.431 77.0861 139.213 76.7783 139.063 76.4364C138.914 76.0944 138.837 75.7256 138.837 75.3528C138.837 74.98 138.914 74.6112 139.063 74.2693C139.213 73.9273 139.431 73.6195 139.705 73.3649C139.979 73.1103 140.303 72.9143 140.657 72.7892C141.01 72.664 141.385 72.6124 141.76 72.6374H149.015C149.389 72.6124 149.765 72.664 150.118 72.7892C150.472 72.9143 150.796 73.1103 151.07 73.3649C151.344 73.6195 151.562 73.9273 151.711 74.2693C151.861 74.6112 151.938 74.98 151.938 75.3528C151.938 75.7256 151.861 76.0944 151.711 76.4364C151.562 76.7783 151.344 77.0861 151.07 77.3407C150.796 77.5953 150.472 77.7913 150.118 77.9164C149.765 78.0416 149.389 78.0933 149.015 78.0683Z" fill="#41A02E"/>
<path d="M149.015 79.2084H141.76C141.232 79.2379 140.703 79.1602 140.206 78.9798C139.71 78.7994 139.255 78.5202 138.871 78.1593C138.487 77.7983 138.18 77.3633 137.971 76.8807C137.762 76.3981 137.654 75.8782 137.654 75.3528C137.654 74.8273 137.762 74.3074 137.971 73.8249C138.18 73.3423 138.487 72.9072 138.871 72.5463C139.255 72.1854 139.71 71.9062 140.206 71.7258C140.703 71.5454 141.232 71.4676 141.76 71.4972H149.015C149.543 71.4676 150.071 71.5454 150.568 71.7258C151.065 71.9062 151.519 72.1854 151.904 72.5463C152.288 72.9072 152.594 73.3423 152.803 73.8249C153.012 74.3074 153.12 74.8273 153.12 75.3528C153.12 75.8782 153.012 76.3981 152.803 76.8807C152.594 77.3633 152.288 77.7983 151.904 78.1593C151.519 78.5202 151.065 78.7994 150.568 78.9798C150.071 79.1602 149.543 79.2379 149.015 79.2084ZM141.76 73.7775C141.363 73.8122 140.994 73.9932 140.726 74.2848C140.457 74.5764 140.308 74.9574 140.308 75.3528C140.308 75.7481 140.457 76.1291 140.726 76.4207C140.994 76.7123 141.363 76.8933 141.76 76.9281H149.015C149.235 76.9474 149.456 76.921 149.666 76.8506C149.875 76.7802 150.067 76.6674 150.23 76.5192C150.393 76.371 150.523 76.1908 150.612 75.99C150.701 75.7892 150.747 75.5722 150.747 75.3528C150.747 75.1334 150.701 74.9164 150.612 74.7156C150.523 74.5148 150.393 74.3345 150.23 74.1864C150.067 74.0382 149.875 73.9253 149.666 73.8549C149.456 73.7845 149.235 73.7582 149.015 73.7775H141.76Z" fill="#41A02E"/>
<path d="M166.696 78.0683H159.441C159.067 78.0933 158.691 78.0416 158.338 77.9164C157.985 77.7913 157.661 77.5953 157.387 77.3407C157.113 77.0861 156.894 76.7783 156.745 76.4364C156.595 76.0944 156.518 75.7256 156.518 75.3528C156.518 74.98 156.595 74.6112 156.745 74.2693C156.894 73.9273 157.113 73.6195 157.387 73.3649C157.661 73.1103 157.985 72.9143 158.338 72.7892C158.691 72.664 159.067 72.6124 159.441 72.6374H166.696C167.071 72.6124 167.446 72.664 167.8 72.7892C168.153 72.9143 168.477 73.1103 168.751 73.3649C169.025 73.6195 169.244 73.9273 169.393 74.2693C169.542 74.6112 169.619 74.98 169.619 75.3528C169.619 75.7256 169.542 76.0944 169.393 76.4364C169.244 76.7783 169.025 77.0861 168.751 77.3407C168.477 77.5953 168.153 77.7913 167.8 77.9164C167.446 78.0416 167.071 78.0933 166.696 78.0683Z" fill="#41A02E"/>
<path d="M166.696 79.2084H159.441C158.913 79.2379 158.385 79.1602 157.888 78.9798C157.391 78.7994 156.937 78.5202 156.552 78.1593C156.168 77.7983 155.862 77.3633 155.653 76.8807C155.443 76.3981 155.335 75.8782 155.335 75.3528C155.335 74.8273 155.443 74.3074 155.653 73.8249C155.862 73.3423 156.168 72.9072 156.552 72.5463C156.937 72.1854 157.391 71.9062 157.888 71.7258C158.385 71.5454 158.913 71.4676 159.441 71.4972H166.696C167.224 71.4676 167.753 71.5454 168.249 71.7258C168.746 71.9062 169.201 72.1854 169.585 72.5463C169.969 72.9072 170.275 73.3423 170.485 73.8249C170.694 74.3074 170.802 74.8273 170.802 75.3528C170.802 75.8782 170.694 76.3981 170.485 76.8807C170.275 77.3633 169.969 77.7983 169.585 78.1593C169.201 78.5202 168.746 78.7994 168.249 78.9798C167.753 79.1602 167.224 79.2379 166.696 79.2084ZM159.441 73.7775C159.221 73.7582 158.999 73.7845 158.79 73.8549C158.581 73.9253 158.389 74.0382 158.226 74.1864C158.063 74.3345 157.933 74.5148 157.844 74.7156C157.755 74.9164 157.709 75.1334 157.709 75.3528C157.709 75.5722 157.755 75.7892 157.844 75.99C157.933 76.1908 158.063 76.371 158.226 76.5192C158.389 76.6674 158.581 76.7802 158.79 76.8506C158.999 76.921 159.221 76.9474 159.441 76.9281H166.696C167.093 76.8933 167.461 76.7123 167.73 76.4207C167.999 76.1291 168.148 75.7481 168.148 75.3528C168.148 74.9574 167.999 74.5764 167.73 74.2848C167.461 73.9932 167.093 73.8122 166.696 73.7775H159.441Z" fill="#41A02E"/>
<path d="M254.132 75.7842C254.369 74.3339 253.378 72.9674 251.918 72.732C250.458 72.4966 249.083 73.4814 248.846 74.9317C248.609 76.3819 249.6 77.7485 251.06 77.9839C252.52 78.2193 253.895 77.2344 254.132 75.7842Z" fill="#41A02E"/>
<path d="M251.476 79.1593C250.716 79.1617 249.972 78.9399 249.339 78.5219C248.706 78.1039 248.212 77.5085 247.92 76.8114C247.628 76.1142 247.551 75.3466 247.699 74.6058C247.847 73.8651 248.213 73.1846 248.75 72.6507C249.287 72.1168 249.972 71.7534 250.718 71.6067C251.463 71.4599 252.236 71.5365 252.938 71.8266C253.639 72.1167 254.238 72.6072 254.659 73.2361C255.08 73.865 255.303 74.6038 255.301 75.3589C255.301 75.858 255.202 76.3522 255.009 76.8132C254.817 77.2743 254.536 77.6933 254.18 78.0462C253.825 78.3991 253.403 78.679 252.939 78.87C252.475 79.061 251.978 79.1593 251.476 79.1593ZM251.476 73.8387C251.173 73.8387 250.877 73.9279 250.626 74.0949C250.374 74.262 250.178 74.4994 250.062 74.7772C249.946 75.0549 249.916 75.3606 249.975 75.6555C250.034 75.9503 250.18 76.2212 250.394 76.4338C250.608 76.6464 250.88 76.7912 251.177 76.8498C251.474 76.9085 251.782 76.8784 252.061 76.7633C252.341 76.6483 252.58 76.4534 252.748 76.2035C252.916 75.9535 253.006 75.6596 253.006 75.3589C253.006 74.9557 252.844 74.5691 252.558 74.284C252.271 73.9989 251.881 73.8387 251.476 73.8387V73.8387Z" fill="#41A02E"/>
<path d="M243.49 76.1232C243.914 74.7157 243.11 73.233 241.693 72.8116C240.277 72.3901 238.785 73.1894 238.36 74.5969C237.936 76.0044 238.741 77.487 240.157 77.9085C241.574 78.33 243.066 77.5306 243.49 76.1232Z" fill="#41A02E"/>
<path d="M240.914 79.1593C240.154 79.1617 239.41 78.9399 238.777 78.5219C238.144 78.1039 237.65 77.5085 237.358 76.8114C237.066 76.1142 236.989 75.3466 237.137 74.6058C237.285 73.8651 237.65 73.1846 238.188 72.6507C238.725 72.1168 239.41 71.7534 240.156 71.6067C240.901 71.4599 241.674 71.5365 242.375 71.8266C243.077 72.1167 243.676 72.6072 244.097 73.2361C244.518 73.865 244.741 74.6038 244.739 75.3589C244.739 75.858 244.64 76.3522 244.447 76.8132C244.255 77.2743 243.974 77.6933 243.618 78.0462C243.263 78.3991 242.841 78.679 242.377 78.87C241.913 79.061 241.416 79.1593 240.914 79.1593V79.1593ZM240.914 73.8387C240.611 73.8387 240.315 73.9279 240.064 74.0949C239.812 74.262 239.616 74.4994 239.5 74.7772C239.384 75.0549 239.354 75.3606 239.413 75.6555C239.472 75.9503 239.618 76.2212 239.832 76.4338C240.046 76.6464 240.318 76.7912 240.615 76.8498C240.912 76.9085 241.22 76.8784 241.499 76.7633C241.779 76.6483 242.018 76.4534 242.186 76.2035C242.354 75.9535 242.444 75.6596 242.444 75.3589C242.444 74.9557 242.282 74.5691 241.996 74.284C241.709 73.9989 241.319 73.8387 240.914 73.8387V73.8387Z" fill="#41A02E"/>
<path d="M230.364 78.0192C231.843 78.0192 233.042 76.8281 233.042 75.3589C233.042 73.8897 231.843 72.6986 230.364 72.6986C228.886 72.6986 227.687 73.8897 227.687 75.3589C227.687 76.8281 228.886 78.0192 230.364 78.0192Z" fill="#41A02E"/>
<path d="M230.352 79.1593C229.592 79.1617 228.848 78.9399 228.215 78.5219C227.582 78.1039 227.089 77.5085 226.797 76.8114C226.505 76.1142 226.428 75.3466 226.575 74.6058C226.723 73.8651 227.089 73.1846 227.626 72.6507C228.164 72.1168 228.848 71.7534 229.594 71.6067C230.339 71.4599 231.112 71.5365 231.814 71.8266C232.515 72.1167 233.115 72.6072 233.535 73.2361C233.956 73.865 234.179 74.6038 234.177 75.3589C234.177 75.858 234.078 76.3522 233.886 76.8132C233.693 77.2743 233.412 77.6933 233.057 78.0462C232.701 78.3991 232.28 78.679 231.816 78.87C231.352 79.061 230.854 79.1593 230.352 79.1593V79.1593ZM230.352 73.8387C230.049 73.8387 229.753 73.9279 229.502 74.0949C229.25 74.262 229.054 74.4994 228.938 74.7772C228.823 75.0549 228.792 75.3606 228.851 75.6555C228.91 75.9503 229.056 76.2212 229.27 76.4338C229.484 76.6464 229.757 76.7912 230.053 76.8498C230.35 76.9085 230.658 76.8784 230.937 76.7633C231.217 76.6483 231.456 76.4534 231.624 76.2035C231.792 75.9535 231.882 75.6596 231.882 75.3589C231.882 74.9557 231.721 74.5691 231.434 74.284C231.147 73.9989 230.758 73.8387 230.352 73.8387V73.8387Z" fill="#41A02E"/>
<path d="M153.716 177.014C152.387 173.826 151.703 170.409 151.704 166.959C151.704 163.509 152.388 160.093 153.717 156.905C155.046 153.718 156.994 150.821 159.45 148.382C161.905 145.942 164.821 144.007 168.029 142.687C171.233 141.382 174.668 140.727 178.131 140.763C181.594 140.799 185.014 141.524 188.191 142.896C194.65 145.639 199.753 150.815 202.38 157.288L195.372 160.12C194.442 157.82 193.066 155.725 191.322 153.954C189.577 152.183 187.499 150.771 185.205 149.798C182.948 148.823 180.518 148.306 178.058 148.279C175.598 148.251 173.157 148.714 170.879 149.638C166.264 151.556 162.603 155.215 160.699 159.811C158.795 164.408 158.805 169.567 160.725 174.157L153.716 177.014Z" fill="#41A02E"/>
<path d="M219.938 176.67C214.657 176.653 209.501 175.075 205.126 172.136C200.751 169.197 197.356 165.032 195.372 160.169L202.38 157.337C203.307 159.598 204.673 161.654 206.4 163.39C208.126 165.126 210.18 166.507 212.445 167.454C214.709 168.401 217.138 168.896 219.595 168.91C222.051 168.925 224.486 168.458 226.761 167.537C229.036 166.616 231.106 165.259 232.853 163.543C234.601 161.828 235.99 159.787 236.944 157.537C237.897 155.288 238.395 152.874 238.409 150.433C238.424 147.992 237.954 145.573 237.027 143.312L244.035 140.481C246.712 146.919 246.709 154.15 244.025 160.585C241.342 167.021 236.198 172.136 229.723 174.807C226.612 176.048 223.29 176.68 219.938 176.67V176.67Z" fill="#41A02E"/>
</g>
<defs>
<clipPath id="clip0">
<rect width="145.042" height="181.917" fill="white" transform="translate(126.25 59.0417)"/>
</clipPath>
</defs>
</svg>
