<svg width="400" height="300" viewBox="0 0 400 300" fill="none" xmlns="http://www.w3.org/2000/svg">
<rect width="400" height="300" fill="#EBF6F9"/>
<path d="M285.604 215.094C284.118 213.958 282.389 213.191 280.555 212.856C278.722 212.521 276.836 212.627 275.051 213.166L227.424 227.331H201.042L182.297 216.812H217.496C218.417 216.812 219.3 216.443 219.951 215.785C220.602 215.128 220.968 214.236 220.968 213.306V202.787C220.961 201.857 220.6 200.966 219.961 200.297L213.018 193.285C212.531 192.802 211.916 192.473 211.248 192.338L159.178 181.819C158.949 181.778 158.717 181.754 158.484 181.748H137.656C137.216 181.742 136.779 181.825 136.371 181.994L123.771 187.078V181.748C123.773 180.914 123.481 180.106 122.946 179.47C122.412 178.834 121.67 178.411 120.855 178.277L100.027 174.771C99.5283 174.7 99.0206 174.735 98.5363 174.873C98.0521 175.012 97.602 175.252 97.215 175.577C96.8359 175.908 96.5313 176.317 96.3217 176.777C96.1122 177.236 96.0025 177.736 96 178.242V248.37C96 249.3 96.3657 250.192 97.0167 250.849C97.6677 251.507 98.5507 251.876 99.4713 251.876C99.6571 251.882 99.8431 251.87 100.027 251.841L120.855 248.335C121.67 248.201 122.412 247.778 122.946 247.142C123.481 246.506 123.773 245.698 123.771 244.863V241.357H133.629L174.73 255.207C175.09 255.317 175.464 255.376 175.84 255.383H227.91C228.302 255.384 228.69 255.313 229.056 255.172L282.41 236.168C284.744 235.335 286.764 233.792 288.194 231.751C289.624 229.71 290.393 227.272 290.394 224.772C290.405 222.892 289.976 221.036 289.144 219.355C288.312 217.673 287.099 216.214 285.604 215.094V215.094ZM116.828 241.883L102.943 244.232V182.38L116.828 184.729V241.883ZM280.119 229.541L227.32 248.37H176.396L135.295 234.52C134.935 234.41 134.561 234.351 134.185 234.344H123.771V194.652L138.315 188.761H158.137L208.853 199L214.025 204.224V209.8H168.898C168.132 209.802 167.389 210.06 166.783 210.533C166.178 211.007 165.744 211.669 165.55 212.417C165.356 213.165 165.413 213.957 165.71 214.67C166.008 215.382 166.531 215.975 167.197 216.357L198.439 233.888C198.954 234.194 199.542 234.351 200.14 234.344H227.91C228.24 234.352 228.568 234.304 228.882 234.204L277.029 219.898C277.775 219.669 278.564 219.623 279.33 219.763C280.097 219.903 280.819 220.226 281.438 220.704C282.165 221.253 282.731 221.991 283.076 222.84C283.42 223.688 283.531 224.614 283.396 225.521C283.26 226.428 282.884 227.28 282.307 227.988C281.73 228.696 280.974 229.232 280.119 229.541V229.541Z" fill="#39A3C6"/>
<path d="M200.14 178.244C230.764 178.244 255.682 145.21 255.682 104.61V62.5334C255.682 61.7611 255.429 61.0104 254.963 60.3979C254.498 59.7855 253.845 59.3455 253.106 59.1462L201.036 45.1207C200.449 44.9624 199.832 44.9624 199.245 45.1207L147.175 59.1462C146.436 59.3455 145.783 59.7855 145.318 60.3979C144.852 61.0104 144.599 61.7611 144.599 62.5334V104.61C144.599 145.21 169.517 178.244 200.14 178.244ZM151.542 65.2298L200.14 52.1369L248.739 65.2298V104.61C248.739 141.346 226.939 171.231 200.14 171.231C173.342 171.231 151.542 141.346 151.542 104.61V65.2298Z" fill="#39A3C6"/>
<path d="M186.254 125.646V136.165C186.254 138.025 186.986 139.809 188.288 141.124C189.59 142.439 191.356 143.178 193.197 143.178H207.082C208.924 143.178 210.689 142.439 211.991 141.124C213.293 139.809 214.025 138.025 214.025 136.165V125.646H224.439C226.28 125.646 228.046 124.907 229.348 123.592C230.65 122.277 231.381 120.493 231.381 118.633V104.608C231.381 102.748 230.65 100.964 229.348 99.6489C228.046 98.3338 226.28 97.5949 224.439 97.5949H214.025V87.0758C214.025 85.2159 213.293 83.4321 211.991 82.117C210.689 80.8018 208.924 80.063 207.082 80.063H193.197C191.356 80.063 189.59 80.8018 188.288 82.117C186.986 83.4321 186.254 85.2159 186.254 87.0758V97.5949H175.84C173.999 97.5949 172.233 98.3338 170.931 99.6489C169.629 100.964 168.898 102.748 168.898 104.608V118.633C168.898 120.493 169.629 122.277 170.931 123.592C172.233 124.907 173.999 125.646 175.84 125.646H186.254ZM175.84 104.608H186.254C188.096 104.608 189.861 103.869 191.163 102.554C192.465 101.239 193.197 99.4548 193.197 97.5949V87.0758H207.082V97.5949C207.082 99.4548 207.814 101.239 209.116 102.554C210.418 103.869 212.184 104.608 214.025 104.608H224.439V118.633H214.025C212.184 118.633 210.418 119.372 209.116 120.687C207.814 122.002 207.082 123.786 207.082 125.646V136.165H193.197V125.646C193.197 123.786 192.465 122.002 191.163 120.687C189.861 119.372 188.096 118.633 186.254 118.633H175.84V104.608Z" fill="#39A3C6"/>
<path d="M269.567 66.0383H276.51V59.0255H283.453V52.0128H276.51V45H269.567V52.0128H262.625V59.0255H269.567V66.0383Z" fill="#39A3C6"/>
<path d="M304.28 73.0527H297.337V66.0399H290.395V73.0527H283.452V80.0655H290.395V87.0782H297.337V80.0655H304.28V73.0527Z" fill="#39A3C6"/>
<path d="M255.682 153.699V160.712H248.739V167.724H255.682V174.737H262.625V167.724H269.567V160.712H262.625V153.699H255.682Z" fill="#39A3C6"/>
<path d="M283.452 132.659H276.509V139.671H269.566V146.684H276.509V153.697H283.452V146.684H290.394V139.671H283.452V132.659Z" fill="#39A3C6"/>
<path d="M123.77 66.0383H130.712V59.0255H137.655V52.0128H130.712V45H123.77V52.0128H116.827V59.0255H123.77V66.0383Z" fill="#39A3C6"/>
<path d="M102.943 87.0782H109.885V80.0655H116.828V73.0527H109.885V66.0399H102.943V73.0527H96V80.0655H102.943V87.0782Z" fill="#39A3C6"/>
<path d="M137.656 153.699V160.712H130.713V167.724H137.656V174.737H144.598V167.724H151.541V160.712H144.598V153.699H137.656Z" fill="#39A3C6"/>
<path d="M123.772 153.697V146.684H130.715V139.671H123.772V132.659H116.83V139.671H109.887V146.684H116.83V153.697H123.772Z" fill="#39A3C6"/>
</svg>
