<svg width="400" height="300" viewBox="0 0 400 300" fill="none" xmlns="http://www.w3.org/2000/svg">
<rect width="400" height="300" fill="#F4EDF8"/>
<g clip-path="url(#clip0)">
<path d="M305.572 175.601H94.4145C91.1156 175.584 87.9581 174.288 85.6319 171.998C83.3057 169.708 81.9999 166.61 82 163.381V85.9306C82.022 82.7037 83.3469 79.6163 85.6857 77.3421C88.0245 75.0679 91.1873 73.7916 94.4838 73.7917H305.586C308.87 73.8094 312.015 75.0937 314.339 77.3659C316.663 79.6382 317.978 82.7154 318 85.9306V163.449C317.982 166.669 316.666 169.752 314.339 172.027C312.012 174.303 308.861 175.587 305.572 175.601ZM94.4145 80.8524C93.0373 80.8523 91.7164 81.387 90.7413 82.3389C89.7662 83.2909 89.2166 84.5825 89.2129 85.9306V163.449C89.2129 164.799 89.7609 166.095 90.7364 167.049C91.7119 168.004 93.0349 168.541 94.4145 168.541H305.572C306.949 168.537 308.268 167.999 309.241 167.045C310.213 166.09 310.759 164.797 310.759 163.449V85.9306C310.752 84.5836 310.201 83.2941 309.227 82.3429C308.253 81.3917 306.934 80.8559 305.558 80.8524H94.4145Z" fill="#753993"/>
<path d="M275.375 137.623H124.653C124.193 137.594 123.732 137.658 123.298 137.81C122.865 137.963 122.467 138.201 122.131 138.509C121.795 138.818 121.527 139.19 121.344 139.604C121.161 140.018 121.066 140.465 121.066 140.916C121.066 141.367 121.161 141.813 121.344 142.227C121.527 142.641 121.795 143.014 122.131 143.323C122.467 143.631 122.865 143.869 123.298 144.021C123.732 144.174 124.193 144.238 124.653 144.209H275.375C276.229 144.155 277.031 143.785 277.617 143.173C278.203 142.561 278.529 141.754 278.529 140.916C278.529 140.077 278.203 139.27 277.617 138.659C277.031 138.047 276.229 137.677 275.375 137.623V137.623Z" fill="#753993"/>
<path d="M275.375 151.514H124.653C123.759 151.514 122.902 151.861 122.27 152.48C121.638 153.099 121.282 153.938 121.282 154.813C121.282 155.688 121.638 156.528 122.27 157.146C122.902 157.765 123.759 158.113 124.653 158.113H275.375C276.269 158.113 277.126 157.765 277.758 157.146C278.39 156.528 278.745 155.688 278.745 154.813C278.745 153.938 278.39 153.099 277.758 152.48C277.126 151.861 276.269 151.514 275.375 151.514V151.514Z" fill="#753993"/>
<path d="M182.439 110.901H193.689L188.251 119.415C187.76 120.188 187.6 121.12 187.808 122.008C188.016 122.896 188.574 123.667 189.361 124.153V124.153C190.139 124.634 191.079 124.795 191.977 124.602C192.876 124.409 193.66 123.877 194.16 123.121L199.972 114.024L205.798 123.121C206.042 123.505 206.361 123.837 206.736 124.1C207.112 124.363 207.536 124.551 207.986 124.653C208.435 124.755 208.901 124.769 209.356 124.695C209.812 124.621 210.247 124.46 210.639 124.221C211.031 123.982 211.37 123.67 211.639 123.303C211.907 122.935 212.099 122.52 212.203 122.08C212.308 121.64 212.323 121.184 212.247 120.738C212.171 120.293 212.007 119.866 211.763 119.482V119.482L206.325 110.901H217.575C218.469 110.846 219.308 110.459 219.922 109.82C220.535 109.18 220.877 108.336 220.877 107.459C220.877 106.582 220.535 105.737 219.922 105.098C219.308 104.458 218.469 104.072 217.575 104.017H206.325L211.763 95.5169C212.048 95.1406 212.251 94.7115 212.361 94.2556C212.472 93.7998 212.486 93.3268 212.403 92.8654C212.32 92.4041 212.142 91.9641 211.88 91.5723C211.617 91.1805 211.276 90.8451 210.877 90.5865C210.478 90.328 210.03 90.1517 209.559 90.0685C209.088 89.9852 208.605 89.9967 208.138 90.1023C207.672 90.2079 207.233 90.4054 206.847 90.6826C206.462 90.9599 206.138 91.3111 205.895 91.715C205.855 91.7594 205.822 91.8098 205.798 91.8643L199.986 100.962L194.16 91.8915C193.925 91.5028 193.615 91.1631 193.245 90.892C192.876 90.6209 192.456 90.4236 192.009 90.3114C191.563 90.1992 191.097 90.1743 190.641 90.238C190.184 90.3018 189.744 90.453 189.347 90.683C188.95 90.913 188.603 91.2174 188.326 91.5786C188.049 91.9399 187.848 92.351 187.733 92.7886C187.618 93.2261 187.593 93.6814 187.658 94.1286C187.723 94.5757 187.878 95.0059 188.113 95.3947L188.196 95.544L193.633 104.044H182.439C181.576 104.136 180.778 104.537 180.199 105.17C179.619 105.803 179.299 106.623 179.299 107.473C179.299 108.322 179.619 109.142 180.199 109.775C180.778 110.408 181.576 110.809 182.439 110.901Z" fill="#753993"/>
<path d="M157.749 196.173C157.749 193.036 161.799 189.641 163.214 188.704C163.599 188.454 163.929 188.132 164.186 187.756C164.443 187.381 164.622 186.96 164.713 186.516C164.804 186.073 164.804 185.617 164.715 185.173C164.626 184.73 164.448 184.308 164.192 183.932C163.936 183.555 163.607 183.232 163.224 182.981C162.84 182.729 162.41 182.554 161.957 182.465C161.504 182.376 161.038 182.375 160.585 182.462C160.132 182.55 159.701 182.724 159.316 182.974C158.429 183.545 150.703 188.813 150.703 196.173C150.927 199.65 152.488 202.915 155.072 205.311C156.723 207.198 157.749 208.434 157.749 209.954C157.749 213.091 153.685 216.486 152.201 217.423C151.467 217.947 150.969 218.73 150.81 219.606C150.652 220.482 150.845 221.384 151.35 222.123C151.855 222.863 152.633 223.383 153.52 223.575C154.407 223.767 155.336 223.615 156.112 223.153C156.986 222.582 164.712 217.314 164.712 209.954C164.494 206.48 162.932 203.217 160.343 200.83C158.776 198.942 157.749 197.707 157.749 196.173Z" fill="#753993"/>
<path d="M178.86 196.173C178.86 193.036 182.925 189.641 184.409 188.705C185.142 188.18 185.641 187.397 185.799 186.522C185.958 185.646 185.764 184.743 185.259 184.004C184.754 183.264 183.977 182.744 183.09 182.552C182.202 182.361 181.273 182.512 180.497 182.975C179.623 183.545 171.897 188.813 171.897 196.173C172.109 199.65 173.667 202.918 176.253 205.311C177.917 207.198 178.93 208.434 178.93 209.955C178.93 213.091 174.879 216.486 173.381 217.423C172.648 217.948 172.15 218.73 171.991 219.606C171.833 220.482 172.026 221.384 172.531 222.123C173.036 222.863 173.813 223.383 174.701 223.575C175.588 223.767 176.517 223.615 177.293 223.153C178.181 222.582 185.907 217.314 185.907 209.955C185.683 206.481 184.122 203.22 181.538 200.83C179.901 198.943 178.874 197.707 178.874 196.173H178.86Z" fill="#753993"/>
<path d="M199.972 196.173C199.972 193.036 204.036 189.641 205.52 188.704C205.905 188.454 206.235 188.132 206.492 187.756C206.749 187.381 206.928 186.96 207.019 186.516C207.11 186.073 207.111 185.617 207.021 185.173C206.932 184.73 206.754 184.308 206.498 183.932C206.242 183.555 205.913 183.232 205.53 182.981C205.146 182.729 204.716 182.554 204.263 182.465C203.81 182.376 203.344 182.375 202.891 182.462C202.438 182.55 202.007 182.724 201.623 182.974C200.735 183.545 193.009 188.813 193.009 196.173C193.233 199.65 194.794 202.915 197.378 205.311C199.029 207.198 200.055 208.434 200.055 209.954C200.055 213.091 196.005 216.486 194.507 217.423C194.101 217.664 193.75 217.984 193.473 218.363C193.197 218.741 193.002 219.17 192.899 219.624C192.797 220.079 192.789 220.548 192.877 221.005C192.965 221.463 193.146 221.898 193.41 222.284C193.674 222.671 194.015 223.001 194.413 223.256C194.811 223.51 195.257 223.683 195.725 223.764C196.193 223.845 196.673 223.833 197.136 223.728C197.599 223.623 198.035 223.427 198.419 223.153C199.292 222.582 207.019 217.314 207.019 209.954C206.801 206.476 205.239 203.208 202.649 200.816C200.999 198.942 199.986 197.707 199.986 196.173H199.972Z" fill="#753993"/>
<path d="M221.098 196.173C221.098 193.036 225.148 189.641 226.563 188.704C226.947 188.454 227.277 188.132 227.535 187.756C227.792 187.381 227.971 186.96 228.062 186.516C228.152 186.073 228.153 185.617 228.064 185.173C227.974 184.73 227.797 184.308 227.541 183.932C227.285 183.555 226.956 183.232 226.572 182.981C226.189 182.729 225.758 182.554 225.305 182.465C224.853 182.376 224.387 182.375 223.933 182.462C223.48 182.55 223.049 182.724 222.665 182.974C221.777 183.545 214.051 188.813 214.051 196.173C214.275 199.65 215.837 202.915 218.421 205.311C220.085 207.198 221.098 208.434 221.098 209.954C221.098 213.091 217.034 216.486 215.549 217.423C214.816 217.947 214.318 218.73 214.159 219.606C214.001 220.482 214.194 221.384 214.699 222.123C215.204 222.863 215.981 223.383 216.869 223.575C217.756 223.767 218.685 223.615 219.461 223.153C220.335 222.582 228.061 217.314 228.061 209.954C227.842 206.483 226.286 203.221 223.705 200.83C222.055 198.942 221.042 197.707 221.042 196.173H221.098Z" fill="#753993"/>
<path d="M242.209 196.173C242.209 193.036 246.273 189.641 247.758 188.705C248.491 188.18 248.989 187.397 249.148 186.522C249.306 185.646 249.113 184.743 248.608 184.004C248.103 183.264 247.326 182.744 246.438 182.552C245.551 182.361 244.622 182.512 243.846 182.975C242.972 183.545 235.246 188.813 235.246 196.173C235.468 199.648 237.024 202.912 239.602 205.311C241.266 207.198 242.279 208.434 242.279 209.955C242.279 213.091 238.228 216.486 236.73 217.423C235.997 217.948 235.498 218.73 235.34 219.606C235.182 220.482 235.375 221.384 235.88 222.123C236.385 222.863 237.162 223.383 238.05 223.575C238.937 223.767 239.866 223.615 240.642 223.153C241.53 222.582 249.256 217.314 249.256 209.955C249.032 206.481 247.471 203.22 244.886 200.83C243.222 198.943 242.223 197.707 242.223 196.173H242.209Z" fill="#753993"/>
</g>
<defs>
<clipPath id="clip0">
<rect width="236" height="149.958" fill="white" transform="translate(82 73.7917)"/>
</clipPath>
</defs>
</svg>
