<svg width="400" height="300" viewBox="0 0 400 300" fill="none" xmlns="http://www.w3.org/2000/svg">
<rect width="400" height="300" fill="#E5F3FF"/>
<g clip-path="url(#clip0)">
<path d="M121.711 195.219C113.181 195.219 106.242 202.158 106.242 210.688C106.242 219.219 113.181 226.158 121.711 226.158C130.242 226.158 137.181 219.219 137.181 210.688C137.181 202.158 130.242 195.219 121.711 195.219ZM121.711 219.018C117.119 219.018 113.382 215.281 113.382 210.688C113.382 206.096 117.119 202.359 121.711 202.359C126.304 202.359 130.041 206.096 130.041 210.688C130.041 215.281 126.304 219.018 121.711 219.018Z" fill="#006DCC"/>
<path d="M283.817 103.254V98.1985C283.817 78.2072 267.552 61.9425 247.561 61.9425C227.57 61.9425 211.305 78.2072 211.305 98.1985V152.88C211.305 164.035 202.23 173.11 191.075 173.11H187.99C181.147 164.832 171.438 158.932 160.158 156.97L108.483 147.983C101.895 146.836 95.18 148.647 90.06 152.952C84.938 157.258 82 163.566 82 170.257V214.257C82 221.475 87.8723 227.347 95.0897 227.347H100.018C105.026 233.853 112.885 238.057 121.712 238.057C130.538 238.057 138.397 233.853 143.405 227.347H185.527C192.744 227.347 198.617 221.475 198.617 214.257V202.691C198.617 194.566 196.52 186.883 192.812 180.187C207.097 179.288 218.445 167.387 218.445 152.879V98.198C218.445 82.1436 231.506 69.082 247.561 69.082C263.616 69.082 276.677 82.1436 276.677 98.1985V103.254C272.523 104.727 269.537 108.695 269.537 113.349V162.851C269.537 167.505 272.523 171.473 276.677 172.947V209.26H283.817V172.947C287.972 171.473 290.957 167.505 290.957 162.851V113.349C290.957 108.695 287.972 104.727 283.817 103.254ZM116.395 156.605L155.588 163.421V169.187C155.588 170.981 154.789 172.662 153.397 173.797C152.006 174.932 150.196 175.376 148.438 175.015L121.153 169.408C118.396 168.839 116.395 166.388 116.395 163.58V156.605H116.395ZM95.0897 220.208C91.8087 220.208 89.1399 217.539 89.1399 214.258V214.021H94.5522C94.8145 216.169 95.3211 218.242 96.0526 220.208H95.0897V220.208ZM121.712 230.918C110.557 230.918 101.482 221.843 101.482 210.688C101.482 199.533 110.556 190.458 121.712 190.458C132.866 190.458 141.941 199.533 141.941 210.688C141.941 221.843 132.866 230.918 121.712 230.918ZM191.477 214.258C191.477 217.538 188.808 220.208 185.527 220.208H147.37C148.102 218.241 148.608 216.168 148.871 214.02H191.477V214.258ZM191.477 206.88H148.81C146.95 193.585 135.511 183.318 121.712 183.318C107.913 183.318 96.4725 193.585 94.6131 206.88H89.1399V170.257C89.1399 165.679 91.1505 161.363 94.655 158.415C98.1572 155.47 102.75 154.232 107.258 155.016L109.254 155.363V163.58C109.254 169.758 113.651 175.15 119.712 176.401L147 182.008C147.884 182.189 148.772 182.279 149.654 182.279C152.638 182.279 155.546 181.257 157.909 179.33C160.971 176.834 162.727 173.136 162.727 169.187V164.861C179.596 169.528 191.476 184.863 191.476 202.692V206.88H191.477ZM283.817 162.852C283.817 164.821 282.216 166.422 280.247 166.422C278.278 166.422 276.677 164.821 276.677 162.852V113.349C276.677 111.38 278.278 109.779 280.247 109.779C282.216 109.779 283.817 111.38 283.817 113.349V162.852Z" fill="#006DCC"/>
<path d="M304.153 215.21H256.341L242.494 238.057H318L304.153 215.21ZM260.363 222.35H300.132L305.325 230.918H255.17L260.363 222.35Z" fill="#006DCC"/>
</g>
<defs>
<clipPath id="clip0">
<rect width="236" height="236" fill="white" transform="translate(82 32)"/>
</clipPath>
</defs>
</svg>
