<svg width="72" height="72" viewBox="0 0 72 72" fill="none" xmlns="http://www.w3.org/2000/svg">
<g clip-path="url(#clip0)">
<path d="M52.3273 61.6744H18.6692C17.7824 61.6734 16.9322 61.3191 16.3051 60.689C15.678 60.059 15.3253 59.2048 15.3244 58.3138V13.6868C15.3253 12.7958 15.678 11.9415 16.3051 11.3115C16.9322 10.6815 17.7824 10.3271 18.6692 10.3262H52.3273C53.2141 10.3271 54.0643 10.6815 54.6914 11.3115C55.3185 11.9415 55.6712 12.7958 55.6721 13.6868V58.3138C55.6712 59.2048 55.3185 60.059 54.6914 60.689C54.0643 61.3191 53.2141 61.6734 52.3273 61.6744V61.6744ZM18.6692 11.8821C18.1925 11.8821 17.7353 12.0721 17.3979 12.4104C17.0604 12.7488 16.8704 13.2078 16.8695 13.6868V58.3138C16.8704 58.7927 17.0604 59.2517 17.3979 59.5901C17.7353 59.9284 18.1925 60.1185 18.6692 60.1185H52.3273C52.804 60.1185 53.2612 59.9284 53.5986 59.5901C53.9361 59.2517 54.1261 58.7927 54.127 58.3138V13.6868C54.1261 13.2078 53.9361 12.7488 53.5986 12.4104C53.2612 12.0721 52.804 11.8821 52.3273 11.8821H18.6692Z" fill="#65874F"/>
<path d="M52.3273 62H18.6692C17.6964 61.9991 16.7636 61.6104 16.0757 60.9192C15.3878 60.2281 15.0009 59.2909 15 58.3135V13.6865C15.0009 12.7091 15.3878 11.7719 16.0757 11.0808C16.7636 10.3896 17.6964 10.0009 18.6692 10H52.3273C53.3001 10.0009 54.2329 10.3896 54.9208 11.0808C55.6087 11.7719 55.9956 12.7091 55.9965 13.6865V58.3135C55.9956 59.2909 55.6087 60.2281 54.9208 60.9192C54.2329 61.6104 53.3001 61.9991 52.3273 62V62ZM18.6692 10.6518C17.8684 10.6527 17.1007 10.9727 16.5344 11.5417C15.9682 12.1106 15.6497 12.8819 15.6487 13.6865V58.3135C15.6497 59.1177 15.9683 59.8887 16.5347 60.4571C17.101 61.0255 17.8688 61.3447 18.6692 61.3447H52.3273C53.1275 61.3438 53.8947 61.0242 54.4608 60.4561C55.027 59.8879 55.3459 59.1175 55.3478 58.3135V13.6865C55.3459 12.8822 55.0271 12.1114 54.461 11.5427C53.895 10.974 53.1278 10.6536 52.3273 10.6518H18.6692ZM52.3273 60.4441H18.6692C18.1065 60.4441 17.5667 60.2197 17.1685 59.8203C16.7703 59.4208 16.5461 58.8789 16.5451 58.3135V13.6865C16.5461 13.1208 16.7701 12.5785 17.1683 12.1785C17.5664 11.7785 18.1062 11.5533 18.6692 11.5524H52.3273C52.8903 11.5533 53.4301 11.7785 53.8282 12.1785C54.2264 12.5785 54.4505 13.1208 54.4514 13.6865V58.3135C54.4505 58.8789 54.2263 59.4208 53.828 59.8203C53.4298 60.2197 52.89 60.4441 52.3273 60.4441V60.4441ZM18.6692 12.2112C18.2786 12.2112 17.9038 12.3669 17.6272 12.6441C17.3506 12.9213 17.1948 13.2975 17.1939 13.69V58.3135C17.1948 58.706 17.3506 59.0822 17.6272 59.3594C17.9038 59.6366 18.2786 59.7923 18.6692 59.7923H52.3273C52.7176 59.7923 53.092 59.6365 53.368 59.3592C53.6441 59.0818 53.7991 58.7057 53.7991 58.3135V13.6865C53.7982 13.2949 53.6427 12.9197 53.3668 12.6431C53.0909 12.3665 52.717 12.2112 52.3273 12.2112H18.6692Z" fill="#65874F"/>
<path d="M35.4983 52.0092C32.8393 52.0092 30.2399 51.2171 28.0289 49.733C25.8179 48.2489 24.0946 46.1395 23.0767 43.6715C22.0588 41.2035 21.7921 38.4876 22.3104 35.8673C22.8286 33.247 24.1085 30.8399 25.9882 28.9504C27.8679 27.0608 30.2631 25.7737 32.8709 25.2516C35.4786 24.7296 38.1819 24.9961 40.6389 26.0175C43.0959 27.0389 45.1964 28.7693 46.6746 30.9899C48.1529 33.2105 48.9427 35.8217 48.944 38.4932C48.9422 42.0761 47.5252 45.5118 45.0043 48.0459C42.4833 50.5801 39.0644 52.0055 35.4983 52.0092V52.0092ZM35.4983 26.5436C33.1443 26.5436 30.8431 27.245 28.8859 28.5592C26.9287 29.8733 25.4034 31.7411 24.5029 33.9262C23.6023 36.1114 23.3671 38.5159 23.8268 40.8354C24.2866 43.155 25.4207 45.2854 27.0857 46.9573C28.7508 48.6292 30.8719 49.7674 33.1809 50.2279C35.4898 50.6885 37.8829 50.4507 40.0573 49.5447C42.2317 48.6386 44.0899 47.105 45.3967 45.1378C46.7035 43.1707 47.4003 40.8583 47.3989 38.4932C47.3934 35.3245 46.1376 32.2872 43.9068 30.0472C41.676 27.8073 38.6522 26.5473 35.4983 26.5436Z" fill="#65874F"/>
<path d="M35.4982 52.3348C32.7751 52.3348 30.113 51.5236 27.8487 50.0037C25.5844 48.4838 23.8194 46.3235 22.777 43.7959C21.7345 41.2684 21.4614 38.487 21.9922 35.8035C22.5229 33.1199 23.8337 30.6548 25.7588 28.7197C27.6839 26.7845 30.1369 25.4663 32.8076 24.9317C35.4782 24.3971 38.2467 24.6701 40.763 25.7162C43.2793 26.7622 45.4304 28.5344 46.9443 30.8086C48.4582 33.0828 49.267 35.7569 49.2684 38.4929C49.2665 42.1622 47.8154 45.6809 45.2336 48.2761C42.6518 50.8714 39.1504 52.3311 35.4982 52.3348V52.3348ZM35.4982 25.3168C32.9028 25.3168 30.3656 26.0902 28.2077 27.5391C26.0497 28.988 24.3679 31.0473 23.375 33.4566C22.3821 35.8659 22.1226 38.5169 22.6295 41.0744C23.1363 43.6319 24.3867 45.9809 26.2225 47.8243C28.0582 49.6677 30.3969 50.9227 32.9427 51.4306C35.4884 51.9385 38.1269 51.6764 40.5244 50.6775C42.9219 49.6786 44.9707 47.9878 46.4117 45.819C47.8526 43.6501 48.621 41.1006 48.6196 38.4929C48.6132 34.9992 47.2285 31.6505 44.7689 29.1807C42.3094 26.7109 38.9756 25.3215 35.4982 25.3168ZM35.4982 50.7824C33.0796 50.7824 30.7154 50.0616 28.7046 48.7112C26.6938 47.3608 25.1269 45.4415 24.2022 43.1962C23.2774 40.9508 23.0363 38.4803 23.5094 36.0973C23.9825 33.7142 25.1486 31.5257 26.86 29.8087C28.5715 28.0917 30.7514 26.9233 33.124 26.4513C35.4965 25.9794 37.9551 26.2251 40.1887 27.1574C42.4222 28.0897 44.3303 29.6668 45.6715 31.6889C47.0127 33.7111 47.7267 36.0875 47.7233 38.5175C47.715 41.7708 46.4237 44.8883 44.1324 47.1871C41.8411 49.4859 38.7364 50.7787 35.4982 50.7824V50.7824ZM35.4982 26.8727C33.2081 26.872 30.9692 27.5539 29.0648 28.8319C27.1604 30.1099 25.6761 31.9268 24.7997 34.0526C23.9233 36.1784 23.6941 38.5175 24.1413 40.7742C24.5884 43.0309 25.6917 45.1036 27.3116 46.7301C28.9315 48.3566 30.9951 49.4638 33.2415 49.9117C35.4878 50.3596 37.8159 50.1279 39.9313 49.2461C42.0466 48.3643 43.854 46.8719 45.1249 44.9578C46.3958 43.0437 47.0731 40.7939 47.071 38.4929C47.0655 35.4116 45.8442 32.4581 43.6749 30.2799C41.5056 28.1017 38.5652 26.8764 35.4982 26.8727V26.8727Z" fill="#65874F"/>
<path d="M51.6123 18.6623H19.3843C19.1789 18.6623 18.982 18.5804 18.8368 18.4345C18.6915 18.2886 18.61 18.0907 18.61 17.8844C18.61 17.6781 18.6915 17.4802 18.8368 17.3343C18.982 17.1884 19.1789 17.1064 19.3843 17.1064H51.6123C51.8176 17.1064 52.0146 17.1884 52.1598 17.3343C52.305 17.4802 52.3866 17.6781 52.3866 17.8844C52.3866 18.0907 52.305 18.2886 52.1598 18.4345C52.0146 18.5804 51.8176 18.6623 51.6123 18.6623V18.6623Z" fill="#65874F"/>
<path d="M51.6123 18.9889H19.3843C19.0929 18.9889 18.8134 18.8726 18.6074 18.6656C18.4013 18.4586 18.2856 18.1779 18.2856 17.8851C18.2856 17.5923 18.4013 17.3116 18.6074 17.1046C18.8134 16.8975 19.0929 16.7812 19.3843 16.7812H51.6123C51.9036 16.7812 52.1831 16.8975 52.3891 17.1046C52.5952 17.3116 52.7109 17.5923 52.7109 17.8851C52.7109 18.1779 52.5952 18.4586 52.3891 18.6656C52.1831 18.8726 51.9036 18.9889 51.6123 18.9889V18.9889ZM19.3843 17.433C19.2722 17.443 19.168 17.4947 19.092 17.5781C19.016 17.6614 18.9739 17.7703 18.9739 17.8833C18.9739 17.9964 19.016 18.1053 19.092 18.1886C19.168 18.272 19.2722 18.3237 19.3843 18.3336H51.6123C51.7243 18.3237 51.8286 18.272 51.9045 18.1886C51.9805 18.1053 52.0226 17.9964 52.0226 17.8833C52.0226 17.7703 51.9805 17.6614 51.9045 17.5781C51.8286 17.4947 51.7243 17.443 51.6123 17.433H19.3843Z" fill="#65874F"/>
<path d="M21.4352 15.4389H19.3843C19.2785 15.4461 19.1723 15.4313 19.0724 15.3955C18.9725 15.3597 18.881 15.3037 18.8035 15.231C18.726 15.1582 18.6643 15.0702 18.6221 14.9724C18.5798 14.8747 18.558 14.7693 18.558 14.6627C18.558 14.5562 18.5798 14.4507 18.6221 14.353C18.6643 14.2552 18.726 14.1672 18.8035 14.0945C18.881 14.0217 18.9725 13.9657 19.0724 13.9299C19.1723 13.8941 19.2785 13.8794 19.3843 13.8865H21.4352C21.541 13.8794 21.6471 13.8941 21.747 13.9299C21.8469 13.9657 21.9385 14.0217 22.0159 14.0945C22.0934 14.1672 22.1552 14.2552 22.1974 14.353C22.2396 14.4507 22.2614 14.5562 22.2614 14.6627C22.2614 14.7693 22.2396 14.8747 22.1974 14.9724C22.1552 15.0702 22.0934 15.1582 22.0159 15.231C21.9385 15.3037 21.8469 15.3597 21.747 15.3955C21.6471 15.4313 21.541 15.4461 21.4352 15.4389Z" fill="#65874F"/>
<path d="M21.4351 15.7645H19.3843C19.235 15.773 19.0856 15.7508 18.9452 15.6992C18.8048 15.6476 18.6763 15.5678 18.5677 15.4647C18.459 15.3615 18.3725 15.2371 18.3134 15.0992C18.2542 14.9613 18.2237 14.8126 18.2237 14.6624C18.2237 14.5122 18.2542 14.3636 18.3134 14.2257C18.3725 14.0878 18.459 13.9634 18.5677 13.8602C18.6763 13.7571 18.8048 13.6772 18.9452 13.6257C19.0856 13.5741 19.235 13.5519 19.3843 13.5603H21.4351C21.5844 13.5519 21.7338 13.5741 21.8742 13.6257C22.0146 13.6772 22.1431 13.7571 22.2517 13.8602C22.3603 13.9634 22.4469 14.0878 22.506 14.2257C22.5652 14.3636 22.5957 14.5122 22.5957 14.6624C22.5957 14.8126 22.5652 14.9613 22.506 15.0992C22.4469 15.2371 22.3603 15.3615 22.2517 15.4647C22.1431 15.5678 22.0146 15.6476 21.8742 15.6992C21.7338 15.7508 21.5844 15.773 21.4351 15.7645ZM19.3843 14.2121C19.2722 14.2221 19.1679 14.2738 19.092 14.3572C19.016 14.4405 18.9739 14.5494 18.9739 14.6624C18.9739 14.7754 19.016 14.8844 19.092 14.9677C19.1679 15.0511 19.2722 15.1028 19.3843 15.1127H21.4351C21.4973 15.1183 21.56 15.1107 21.6191 15.0906C21.6782 15.0705 21.7325 15.0382 21.7785 14.9959C21.8246 14.9535 21.8614 14.902 21.8865 14.8446C21.9117 14.7872 21.9246 14.7252 21.9246 14.6624C21.9246 14.5997 21.9117 14.5377 21.8865 14.4803C21.8614 14.4229 21.8246 14.3714 21.7785 14.329C21.7325 14.2867 21.6782 14.2544 21.6191 14.2343C21.56 14.2142 21.4973 14.2066 21.4351 14.2121H19.3843Z" fill="#65874F"/>
<path d="M26.4332 15.4389H24.3824C24.2765 15.4461 24.1704 15.4313 24.0705 15.3955C23.9706 15.3597 23.8791 15.3037 23.8016 15.231C23.7241 15.1582 23.6624 15.0702 23.6201 14.9724C23.5779 14.8747 23.5561 14.7693 23.5561 14.6627C23.5561 14.5562 23.5779 14.4507 23.6201 14.353C23.6624 14.2552 23.7241 14.1672 23.8016 14.0945C23.8791 14.0217 23.9706 13.9657 24.0705 13.9299C24.1704 13.8941 24.2765 13.8794 24.3824 13.8865H26.4332C26.5391 13.8794 26.6452 13.8941 26.7451 13.9299C26.845 13.9657 26.9365 14.0217 27.014 14.0945C27.0915 14.1672 27.1532 14.2552 27.1955 14.353C27.2377 14.4507 27.2595 14.5562 27.2595 14.6627C27.2595 14.7693 27.2377 14.8747 27.1955 14.9724C27.1532 15.0702 27.0915 15.1582 27.014 15.231C26.9365 15.3037 26.845 15.3597 26.7451 15.3955C26.6452 15.4313 26.5391 15.4461 26.4332 15.4389Z" fill="#65874F"/>
<path d="M26.4333 15.7645H24.3824C24.2331 15.773 24.0837 15.7508 23.9433 15.6992C23.8029 15.6476 23.6745 15.5678 23.5658 15.4647C23.4572 15.3615 23.3706 15.2371 23.3115 15.0992C23.2523 14.9613 23.2218 14.8126 23.2218 14.6624C23.2218 14.5122 23.2523 14.3636 23.3115 14.2257C23.3706 14.0878 23.4572 13.9634 23.5658 13.8602C23.6745 13.7571 23.8029 13.6772 23.9433 13.6257C24.0837 13.5741 24.2331 13.5519 24.3824 13.5603H26.4333C26.5825 13.5519 26.7319 13.5741 26.8723 13.6257C27.0127 13.6772 27.1412 13.7571 27.2498 13.8602C27.3585 13.9634 27.445 14.0878 27.5042 14.2257C27.5633 14.3636 27.5938 14.5122 27.5938 14.6624C27.5938 14.8126 27.5633 14.9613 27.5042 15.0992C27.445 15.2371 27.3585 15.3615 27.2498 15.4647C27.1412 15.5678 27.0127 15.6476 26.8723 15.6992C26.7319 15.7508 26.5825 15.773 26.4333 15.7645ZM24.3824 14.2121C24.3202 14.2066 24.2576 14.2142 24.1984 14.2343C24.1393 14.2544 24.085 14.2867 24.039 14.329C23.9929 14.3714 23.9562 14.4229 23.931 14.4803C23.9059 14.5377 23.8929 14.5997 23.8929 14.6624C23.8929 14.7252 23.9059 14.7872 23.931 14.8446C23.9562 14.902 23.9929 14.9535 24.039 14.9959C24.085 15.0382 24.1393 15.0705 24.1984 15.0906C24.2576 15.1107 24.3202 15.1183 24.3824 15.1127H26.4333C26.5453 15.1028 26.6496 15.0511 26.7255 14.9677C26.8015 14.8844 26.8436 14.7754 26.8436 14.6624C26.8436 14.5494 26.8015 14.4405 26.7255 14.3572C26.6496 14.2738 26.5453 14.2221 26.4333 14.2121H24.3824Z" fill="#65874F"/>
<path d="M51.1493 14.786C51.2163 14.3715 50.9361 13.9809 50.5235 13.9136C50.1109 13.8463 49.7221 14.1278 49.6551 14.5424C49.5881 14.9569 49.8683 15.3475 50.2809 15.4148C50.6935 15.4821 51.0823 15.2006 51.1493 14.786Z" fill="#65874F"/>
<path d="M50.3985 15.7509C50.1836 15.7516 49.9734 15.6882 49.7945 15.5687C49.6156 15.4493 49.476 15.2791 49.3935 15.0798C49.311 14.8805 49.2892 14.6611 49.3309 14.4494C49.3727 14.2376 49.4761 14.0431 49.628 13.8905C49.7799 13.7379 49.9735 13.634 50.1842 13.5921C50.395 13.5501 50.6134 13.572 50.8117 13.6549C51.0101 13.7378 51.1794 13.8781 51.2984 14.0578C51.4173 14.2376 51.4804 14.4488 51.4797 14.6646C51.4797 14.8073 51.4518 14.9485 51.3974 15.0803C51.3431 15.2121 51.2634 15.3319 51.163 15.4328C51.0626 15.5336 50.9434 15.6137 50.8123 15.6683C50.6811 15.7228 50.5405 15.7509 50.3985 15.7509ZM50.3985 14.2301C50.3129 14.2301 50.2293 14.2556 50.1582 14.3033C50.0871 14.3511 50.0316 14.4189 49.9989 14.4983C49.9662 14.5777 49.9576 14.6651 49.9743 14.7494C49.991 14.8337 50.0322 14.9111 50.0927 14.9719C50.1531 15.0326 50.2302 15.074 50.3141 15.0908C50.398 15.1076 50.485 15.099 50.564 15.0661C50.643 15.0332 50.7106 14.9775 50.7581 14.906C50.8056 14.8346 50.831 14.7506 50.831 14.6646C50.831 14.5494 50.7854 14.4388 50.7043 14.3574C50.6232 14.2759 50.5132 14.2301 50.3985 14.2301V14.2301Z" fill="#65874F"/>
<path d="M48.1412 14.8826C48.2611 14.4803 48.0337 14.0565 47.6332 13.936C47.2328 13.8155 46.811 14.044 46.6911 14.4463C46.5712 14.8487 46.7986 15.2725 47.199 15.3929C47.5995 15.5134 48.0213 15.2849 48.1412 14.8826Z" fill="#65874F"/>
<path d="M47.4128 15.7509C47.198 15.7516 46.9878 15.6882 46.8089 15.5687C46.63 15.4493 46.4904 15.2791 46.4079 15.0798C46.3253 14.8805 46.3036 14.6611 46.3453 14.4494C46.387 14.2376 46.4904 14.0431 46.6423 13.8905C46.7943 13.7379 46.9879 13.634 47.1986 13.5921C47.4093 13.5501 47.6277 13.572 47.8261 13.6549C48.0244 13.7378 48.1938 13.8781 48.3127 14.0578C48.4317 14.2376 48.4948 14.4488 48.4941 14.6646C48.4941 14.8073 48.4661 14.9485 48.4118 15.0803C48.3574 15.2121 48.2778 15.3319 48.1774 15.4328C48.077 15.5336 47.9578 15.6137 47.8266 15.6683C47.6954 15.7228 47.5548 15.7509 47.4128 15.7509V15.7509ZM47.4128 14.2301C47.3273 14.2301 47.2437 14.2556 47.1726 14.3033C47.1014 14.3511 47.046 14.4189 47.0133 14.4983C46.9805 14.5777 46.972 14.6651 46.9887 14.7494C47.0053 14.8337 47.0465 14.9111 47.107 14.9719C47.1675 15.0326 47.2446 15.074 47.3285 15.0908C47.4124 15.1076 47.4993 15.099 47.5784 15.0661C47.6574 15.0332 47.7249 14.9775 47.7725 14.906C47.82 14.8346 47.8453 14.7506 47.8453 14.6646C47.8453 14.5494 47.7998 14.4388 47.7187 14.3574C47.6376 14.2759 47.5275 14.2301 47.4128 14.2301V14.2301Z" fill="#65874F"/>
<path d="M44.4307 15.4242C44.8487 15.4242 45.1876 15.0837 45.1876 14.6637C45.1876 14.2438 44.8487 13.9033 44.4307 13.9033C44.0127 13.9033 43.6738 14.2438 43.6738 14.6637C43.6738 15.0837 44.0127 15.4242 44.4307 15.4242Z" fill="#65874F"/>
<path d="M44.4272 15.7509C44.2124 15.7516 44.0022 15.6882 43.8233 15.5687C43.6444 15.4493 43.5048 15.2791 43.4223 15.0798C43.3397 14.8805 43.318 14.6611 43.3597 14.4494C43.4014 14.2376 43.5048 14.0431 43.6567 13.8905C43.8086 13.7379 44.0022 13.634 44.213 13.5921C44.4237 13.5501 44.6421 13.572 44.8405 13.6549C45.0388 13.7378 45.2082 13.8781 45.3271 14.0578C45.446 14.2376 45.5092 14.4488 45.5085 14.6646C45.5085 14.8073 45.4805 14.9485 45.4262 15.0803C45.3718 15.2121 45.2922 15.3319 45.1918 15.4328C45.0914 15.5336 44.9722 15.6137 44.841 15.6683C44.7098 15.7228 44.5692 15.7509 44.4272 15.7509V15.7509ZM44.4272 14.2301C44.3417 14.2301 44.2581 14.2556 44.1869 14.3033C44.1158 14.3511 44.0604 14.4189 44.0277 14.4983C43.9949 14.5777 43.9864 14.6651 44.003 14.7494C44.0197 14.8337 44.0609 14.9111 44.1214 14.9719C44.1819 15.0326 44.259 15.074 44.3429 15.0908C44.4268 15.1076 44.5137 15.099 44.5927 15.0661C44.6718 15.0332 44.7393 14.9775 44.7868 14.906C44.8344 14.8346 44.8597 14.7506 44.8597 14.6646C44.8597 14.5494 44.8142 14.4388 44.7331 14.3574C44.6519 14.2759 44.5419 14.2301 44.4272 14.2301V14.2301Z" fill="#65874F"/>
<path d="M22.764 43.7218C22.3884 42.8106 22.1951 41.834 22.1951 40.8478C22.1952 39.8615 22.3886 38.885 22.7643 37.9738C23.14 37.0627 23.6906 36.2348 24.3848 35.5375C25.0789 34.8402 25.903 34.2871 26.81 33.9098C27.7157 33.5366 28.6867 33.3495 29.6656 33.3598C30.6444 33.37 31.6113 33.5773 32.5091 33.9694C34.3352 34.7536 35.7775 36.2329 36.5202 38.0834L34.5391 38.8929C34.2764 38.2355 33.8874 37.6366 33.3942 37.1303C32.9011 36.6241 32.3135 36.2203 31.6651 35.9423C31.0273 35.6635 30.3404 35.5159 29.6449 35.5081C28.9495 35.5003 28.2595 35.6324 27.6157 35.8967C26.311 36.4449 25.2761 37.4907 24.738 38.8046C24.1998 40.1185 24.2024 41.5933 24.7451 42.9053L22.764 43.7218Z" fill="#65874F"/>
<path d="M41.4835 43.6239C39.9907 43.619 38.5332 43.1678 37.2965 42.3279C36.0598 41.4879 35.0999 40.2971 34.5391 38.9072L36.5202 38.0977C36.7822 38.7438 37.1683 39.3317 37.6565 39.8279C38.1446 40.3241 38.7253 40.7188 39.3652 40.9896C40.0052 41.2603 40.692 41.4017 41.3864 41.4058C42.0808 41.4099 42.7692 41.2765 43.4123 41.0132C44.0554 40.75 44.6405 40.3621 45.1344 39.8717C45.6283 39.3812 46.0212 38.7978 46.2906 38.1548C46.5601 37.5118 46.7009 36.8218 46.7049 36.1242C46.709 35.4265 46.5762 34.7349 46.3142 34.0888L48.2953 33.2793C49.052 35.1197 49.051 37.1865 48.2924 39.0261C47.5338 40.8657 46.0798 42.3277 44.2494 43.0913C43.3701 43.446 42.431 43.6268 41.4835 43.6239V43.6239Z" fill="#65874F"/>
</g>
<defs>
<clipPath id="clip0">
<rect width="41" height="52" fill="white" transform="translate(15 10)"/>
</clipPath>
</defs>
</svg>
