<svg width="72" height="72" viewBox="0 0 72 72" fill="none" xmlns="http://www.w3.org/2000/svg">
<g clip-path="url(#clip0)">
<mask id="path-1-outside-1" maskUnits="userSpaceOnUse" x="5.13333" y="8.5752" width="58" height="49" fill="black">
<rect fill="white" x="5.13333" y="8.5752" width="58" height="49"/>
<path d="M61.968 50.2549C61.8112 50.0447 61.5642 49.9208 61.3019 49.9208H57.2196C58.9004 48.5557 59.977 46.4738 59.977 44.1449V34.1088C59.977 30.0069 56.6394 26.6692 52.5374 26.6692H50.1256C50.9732 26.1663 51.7641 25.5554 52.4767 24.8423C54.9855 22.3335 56.2399 18.8643 55.9173 15.3241C55.881 14.9242 55.564 14.6076 55.1645 14.5713C52.4639 14.3256 49.8265 14.9819 47.5993 16.4311C47.0469 13.8446 45.6442 11.4977 43.5665 9.76778C43.2585 9.511 42.8107 9.511 42.5022 9.76778C40.4245 11.4977 39.0223 13.845 38.4695 16.4311C36.2414 14.9819 33.6031 14.3252 30.9042 14.5713C30.5047 14.6076 30.1877 14.9242 30.1514 15.3241C29.8293 18.8638 31.0832 22.3331 33.592 24.8419C34.3051 25.5549 35.0955 26.1663 35.9427 26.6692H33.874C31.5558 26.6692 29.446 27.7339 28.0686 29.4519V25.6947C28.0686 25.2354 27.6965 24.8632 27.2367 24.8632H24.4383V21.0513C24.4383 19.7094 23.3467 18.6173 22.0043 18.6173H20.6542V14.6401C20.6542 13.3024 19.566 12.2142 18.2283 12.2142H15.0137C13.6759 12.2142 12.5873 13.3024 12.5873 14.6401V18.6173H11.2381C9.89525 18.6173 8.80278 19.7094 8.80278 21.0518V25.0837C8.80278 25.543 9.17534 25.9151 9.63463 25.9151C10.0939 25.9151 10.466 25.543 10.466 25.0837V21.0518C10.466 20.6267 10.8125 20.281 11.2381 20.281H22.0047C22.4294 20.281 22.775 20.6267 22.775 21.0518V24.8632H19.8971C19.4374 24.8632 19.0652 25.2354 19.0652 25.6947V31.8615C15.4798 33.5863 13.1932 37.1965 13.1932 41.2101C13.1932 44.8571 15.085 48.0704 17.939 49.9208H11.2338C10.8104 49.9182 10.4665 49.5739 10.4665 49.1505V28.4107C10.4665 27.9514 10.0939 27.5788 9.63463 27.5788C9.17534 27.5788 8.80321 27.9514 8.80321 28.4107V49.1505C8.80321 49.4196 8.84764 49.6785 8.92882 49.9208H6.96519C6.70286 49.9208 6.45549 50.0447 6.29869 50.2549C6.14146 50.4651 6.09318 50.7373 6.16753 50.9889C6.67552 52.7013 7.70048 54.1715 9.13176 55.24C10.563 56.3085 12.2639 56.8734 14.0498 56.8734H45.8882C46.3475 56.8734 46.7196 56.5008 46.7196 56.0415C46.7196 55.5822 46.3475 55.2097 45.8882 55.2097H14.0502C11.5555 55.2097 9.28343 53.7643 8.18584 51.5841H52.5374H52.5459H60.0809C58.9837 53.7643 56.7116 55.2097 54.2169 55.2097H49.2151C48.7558 55.2097 48.3833 55.5822 48.3833 56.0415C48.3833 56.5008 48.7558 56.8734 49.2151 56.8734H54.2169C56.0028 56.8734 57.7037 56.3085 59.1349 55.24C60.5662 54.1715 61.5912 52.7013 62.0992 50.9889C62.1735 50.7373 62.1252 50.4651 61.968 50.2549V50.2549ZM47.8467 18.293C49.7022 16.8678 51.9585 16.1333 54.3011 16.1871C54.3634 18.983 53.2906 21.676 51.3005 23.6661C49.6044 25.3627 47.3968 26.3919 45.0508 26.6201C46.8567 24.4851 47.8637 21.7755 47.8637 18.9305C47.8637 18.7173 47.8578 18.505 47.8467 18.293V18.293ZM43.0346 11.5208C45.055 13.4532 46.2005 16.1158 46.2005 18.9305C46.2005 21.7456 45.055 24.4082 43.0346 26.3402C41.0141 24.4082 39.8687 21.7456 39.8687 18.9305C39.8687 16.1158 41.0141 13.4532 43.0346 11.5208ZM31.7677 16.1871C34.1133 16.1316 36.367 16.8678 38.2225 18.2935C38.2114 18.505 38.2054 18.7173 38.2054 18.9309C38.2054 21.7755 39.2124 24.4855 41.0188 26.6205C38.6728 26.3923 36.4657 25.3635 34.7682 23.6661C32.7781 21.676 31.7057 18.983 31.7677 16.1871V16.1871ZM18.9909 18.6173H14.2506V14.6401C14.2506 14.2197 14.5928 13.8775 15.0137 13.8775H18.2283C18.6491 13.8775 18.9909 14.2197 18.9909 14.6401V18.6173ZM20.7285 26.5265H26.4053V28.7986H20.7285V26.5265ZM14.8564 41.2101C14.8564 37.6823 16.9606 34.5254 20.2171 33.1672C20.5268 33.0382 20.7285 32.7352 20.7285 32.3999V30.4619H26.4053V32.3999C26.4053 32.7352 26.607 33.0382 26.9167 33.1672C30.1732 34.5254 32.2774 37.6823 32.2774 41.2101C32.2774 46.0132 28.3702 49.9208 23.5671 49.9208C18.7636 49.9208 14.8564 46.0132 14.8564 41.2101ZM52.5459 49.9208H29.1952C31.1008 48.6852 32.5773 46.8416 33.3481 44.6669H48.8204C51.1587 44.6669 53.0608 42.7648 53.0608 40.4265V39.3964C53.0608 37.0581 51.1587 35.156 48.8204 35.156H34.4777C34.018 35.156 33.6459 35.5282 33.6459 35.9874C33.6459 36.4467 34.018 36.8193 34.4777 36.8193H48.8204C50.2414 36.8193 51.3975 37.9754 51.3975 39.3964V40.4265C51.3975 41.8475 50.2414 43.0037 48.8204 43.0037H33.7856C33.8873 42.4209 33.9411 41.8219 33.9411 41.2101C33.9411 37.3491 31.8237 33.8615 28.4706 32.067C29.308 29.8389 31.4434 28.3329 33.8744 28.3329H42.0135H42.016H52.537C55.7221 28.3329 58.3133 30.9241 58.3133 34.1088V44.1449C58.3138 47.327 55.7268 49.9161 52.5459 49.9208V49.9208Z"/>
</mask>
<path d="M61.968 50.2549C61.8112 50.0447 61.5642 49.9208 61.3019 49.9208H57.2196C58.9004 48.5557 59.977 46.4738 59.977 44.1449V34.1088C59.977 30.0069 56.6394 26.6692 52.5374 26.6692H50.1256C50.9732 26.1663 51.7641 25.5554 52.4767 24.8423C54.9855 22.3335 56.2399 18.8643 55.9173 15.3241C55.881 14.9242 55.564 14.6076 55.1645 14.5713C52.4639 14.3256 49.8265 14.9819 47.5993 16.4311C47.0469 13.8446 45.6442 11.4977 43.5665 9.76778C43.2585 9.511 42.8107 9.511 42.5022 9.76778C40.4245 11.4977 39.0223 13.845 38.4695 16.4311C36.2414 14.9819 33.6031 14.3252 30.9042 14.5713C30.5047 14.6076 30.1877 14.9242 30.1514 15.3241C29.8293 18.8638 31.0832 22.3331 33.592 24.8419C34.3051 25.5549 35.0955 26.1663 35.9427 26.6692H33.874C31.5558 26.6692 29.446 27.7339 28.0686 29.4519V25.6947C28.0686 25.2354 27.6965 24.8632 27.2367 24.8632H24.4383V21.0513C24.4383 19.7094 23.3467 18.6173 22.0043 18.6173H20.6542V14.6401C20.6542 13.3024 19.566 12.2142 18.2283 12.2142H15.0137C13.6759 12.2142 12.5873 13.3024 12.5873 14.6401V18.6173H11.2381C9.89525 18.6173 8.80278 19.7094 8.80278 21.0518V25.0837C8.80278 25.543 9.17534 25.9151 9.63463 25.9151C10.0939 25.9151 10.466 25.543 10.466 25.0837V21.0518C10.466 20.6267 10.8125 20.281 11.2381 20.281H22.0047C22.4294 20.281 22.775 20.6267 22.775 21.0518V24.8632H19.8971C19.4374 24.8632 19.0652 25.2354 19.0652 25.6947V31.8615C15.4798 33.5863 13.1932 37.1965 13.1932 41.2101C13.1932 44.8571 15.085 48.0704 17.939 49.9208H11.2338C10.8104 49.9182 10.4665 49.5739 10.4665 49.1505V28.4107C10.4665 27.9514 10.0939 27.5788 9.63463 27.5788C9.17534 27.5788 8.80321 27.9514 8.80321 28.4107V49.1505C8.80321 49.4196 8.84764 49.6785 8.92882 49.9208H6.96519C6.70286 49.9208 6.45549 50.0447 6.29869 50.2549C6.14146 50.4651 6.09318 50.7373 6.16753 50.9889C6.67552 52.7013 7.70048 54.1715 9.13176 55.24C10.563 56.3085 12.2639 56.8734 14.0498 56.8734H45.8882C46.3475 56.8734 46.7196 56.5008 46.7196 56.0415C46.7196 55.5822 46.3475 55.2097 45.8882 55.2097H14.0502C11.5555 55.2097 9.28343 53.7643 8.18584 51.5841H52.5374H52.5459H60.0809C58.9837 53.7643 56.7116 55.2097 54.2169 55.2097H49.2151C48.7558 55.2097 48.3833 55.5822 48.3833 56.0415C48.3833 56.5008 48.7558 56.8734 49.2151 56.8734H54.2169C56.0028 56.8734 57.7037 56.3085 59.1349 55.24C60.5662 54.1715 61.5912 52.7013 62.0992 50.9889C62.1735 50.7373 62.1252 50.4651 61.968 50.2549V50.2549ZM47.8467 18.293C49.7022 16.8678 51.9585 16.1333 54.3011 16.1871C54.3634 18.983 53.2906 21.676 51.3005 23.6661C49.6044 25.3627 47.3968 26.3919 45.0508 26.6201C46.8567 24.4851 47.8637 21.7755 47.8637 18.9305C47.8637 18.7173 47.8578 18.505 47.8467 18.293V18.293ZM43.0346 11.5208C45.055 13.4532 46.2005 16.1158 46.2005 18.9305C46.2005 21.7456 45.055 24.4082 43.0346 26.3402C41.0141 24.4082 39.8687 21.7456 39.8687 18.9305C39.8687 16.1158 41.0141 13.4532 43.0346 11.5208ZM31.7677 16.1871C34.1133 16.1316 36.367 16.8678 38.2225 18.2935C38.2114 18.505 38.2054 18.7173 38.2054 18.9309C38.2054 21.7755 39.2124 24.4855 41.0188 26.6205C38.6728 26.3923 36.4657 25.3635 34.7682 23.6661C32.7781 21.676 31.7057 18.983 31.7677 16.1871V16.1871ZM18.9909 18.6173H14.2506V14.6401C14.2506 14.2197 14.5928 13.8775 15.0137 13.8775H18.2283C18.6491 13.8775 18.9909 14.2197 18.9909 14.6401V18.6173ZM20.7285 26.5265H26.4053V28.7986H20.7285V26.5265ZM14.8564 41.2101C14.8564 37.6823 16.9606 34.5254 20.2171 33.1672C20.5268 33.0382 20.7285 32.7352 20.7285 32.3999V30.4619H26.4053V32.3999C26.4053 32.7352 26.607 33.0382 26.9167 33.1672C30.1732 34.5254 32.2774 37.6823 32.2774 41.2101C32.2774 46.0132 28.3702 49.9208 23.5671 49.9208C18.7636 49.9208 14.8564 46.0132 14.8564 41.2101ZM52.5459 49.9208H29.1952C31.1008 48.6852 32.5773 46.8416 33.3481 44.6669H48.8204C51.1587 44.6669 53.0608 42.7648 53.0608 40.4265V39.3964C53.0608 37.0581 51.1587 35.156 48.8204 35.156H34.4777C34.018 35.156 33.6459 35.5282 33.6459 35.9874C33.6459 36.4467 34.018 36.8193 34.4777 36.8193H48.8204C50.2414 36.8193 51.3975 37.9754 51.3975 39.3964V40.4265C51.3975 41.8475 50.2414 43.0037 48.8204 43.0037H33.7856C33.8873 42.4209 33.9411 41.8219 33.9411 41.2101C33.9411 37.3491 31.8237 33.8615 28.4706 32.067C29.308 29.8389 31.4434 28.3329 33.8744 28.3329H42.0135H42.016H52.537C55.7221 28.3329 58.3133 30.9241 58.3133 34.1088V44.1449C58.3138 47.327 55.7268 49.9161 52.5459 49.9208V49.9208Z" fill="#389494"/>
<path d="M61.968 50.2549C61.8112 50.0447 61.5642 49.9208 61.3019 49.9208H57.2196C58.9004 48.5557 59.977 46.4738 59.977 44.1449V34.1088C59.977 30.0069 56.6394 26.6692 52.5374 26.6692H50.1256C50.9732 26.1663 51.7641 25.5554 52.4767 24.8423C54.9855 22.3335 56.2399 18.8643 55.9173 15.3241C55.881 14.9242 55.564 14.6076 55.1645 14.5713C52.4639 14.3256 49.8265 14.9819 47.5993 16.4311C47.0469 13.8446 45.6442 11.4977 43.5665 9.76778C43.2585 9.511 42.8107 9.511 42.5022 9.76778C40.4245 11.4977 39.0223 13.845 38.4695 16.4311C36.2414 14.9819 33.6031 14.3252 30.9042 14.5713C30.5047 14.6076 30.1877 14.9242 30.1514 15.3241C29.8293 18.8638 31.0832 22.3331 33.592 24.8419C34.3051 25.5549 35.0955 26.1663 35.9427 26.6692H33.874C31.5558 26.6692 29.446 27.7339 28.0686 29.4519V25.6947C28.0686 25.2354 27.6965 24.8632 27.2367 24.8632H24.4383V21.0513C24.4383 19.7094 23.3467 18.6173 22.0043 18.6173H20.6542V14.6401C20.6542 13.3024 19.566 12.2142 18.2283 12.2142H15.0137C13.6759 12.2142 12.5873 13.3024 12.5873 14.6401V18.6173H11.2381C9.89525 18.6173 8.80278 19.7094 8.80278 21.0518V25.0837C8.80278 25.543 9.17534 25.9151 9.63463 25.9151C10.0939 25.9151 10.466 25.543 10.466 25.0837V21.0518C10.466 20.6267 10.8125 20.281 11.2381 20.281H22.0047C22.4294 20.281 22.775 20.6267 22.775 21.0518V24.8632H19.8971C19.4374 24.8632 19.0652 25.2354 19.0652 25.6947V31.8615C15.4798 33.5863 13.1932 37.1965 13.1932 41.2101C13.1932 44.8571 15.085 48.0704 17.939 49.9208H11.2338C10.8104 49.9182 10.4665 49.5739 10.4665 49.1505V28.4107C10.4665 27.9514 10.0939 27.5788 9.63463 27.5788C9.17534 27.5788 8.80321 27.9514 8.80321 28.4107V49.1505C8.80321 49.4196 8.84764 49.6785 8.92882 49.9208H6.96519C6.70286 49.9208 6.45549 50.0447 6.29869 50.2549C6.14146 50.4651 6.09318 50.7373 6.16753 50.9889C6.67552 52.7013 7.70048 54.1715 9.13176 55.24C10.563 56.3085 12.2639 56.8734 14.0498 56.8734H45.8882C46.3475 56.8734 46.7196 56.5008 46.7196 56.0415C46.7196 55.5822 46.3475 55.2097 45.8882 55.2097H14.0502C11.5555 55.2097 9.28343 53.7643 8.18584 51.5841H52.5374H52.5459H60.0809C58.9837 53.7643 56.7116 55.2097 54.2169 55.2097H49.2151C48.7558 55.2097 48.3833 55.5822 48.3833 56.0415C48.3833 56.5008 48.7558 56.8734 49.2151 56.8734H54.2169C56.0028 56.8734 57.7037 56.3085 59.1349 55.24C60.5662 54.1715 61.5912 52.7013 62.0992 50.9889C62.1735 50.7373 62.1252 50.4651 61.968 50.2549V50.2549ZM47.8467 18.293C49.7022 16.8678 51.9585 16.1333 54.3011 16.1871C54.3634 18.983 53.2906 21.676 51.3005 23.6661C49.6044 25.3627 47.3968 26.3919 45.0508 26.6201C46.8567 24.4851 47.8637 21.7755 47.8637 18.9305C47.8637 18.7173 47.8578 18.505 47.8467 18.293V18.293ZM43.0346 11.5208C45.055 13.4532 46.2005 16.1158 46.2005 18.9305C46.2005 21.7456 45.055 24.4082 43.0346 26.3402C41.0141 24.4082 39.8687 21.7456 39.8687 18.9305C39.8687 16.1158 41.0141 13.4532 43.0346 11.5208ZM31.7677 16.1871C34.1133 16.1316 36.367 16.8678 38.2225 18.2935C38.2114 18.505 38.2054 18.7173 38.2054 18.9309C38.2054 21.7755 39.2124 24.4855 41.0188 26.6205C38.6728 26.3923 36.4657 25.3635 34.7682 23.6661C32.7781 21.676 31.7057 18.983 31.7677 16.1871V16.1871ZM18.9909 18.6173H14.2506V14.6401C14.2506 14.2197 14.5928 13.8775 15.0137 13.8775H18.2283C18.6491 13.8775 18.9909 14.2197 18.9909 14.6401V18.6173ZM20.7285 26.5265H26.4053V28.7986H20.7285V26.5265ZM14.8564 41.2101C14.8564 37.6823 16.9606 34.5254 20.2171 33.1672C20.5268 33.0382 20.7285 32.7352 20.7285 32.3999V30.4619H26.4053V32.3999C26.4053 32.7352 26.607 33.0382 26.9167 33.1672C30.1732 34.5254 32.2774 37.6823 32.2774 41.2101C32.2774 46.0132 28.3702 49.9208 23.5671 49.9208C18.7636 49.9208 14.8564 46.0132 14.8564 41.2101ZM52.5459 49.9208H29.1952C31.1008 48.6852 32.5773 46.8416 33.3481 44.6669H48.8204C51.1587 44.6669 53.0608 42.7648 53.0608 40.4265V39.3964C53.0608 37.0581 51.1587 35.156 48.8204 35.156H34.4777C34.018 35.156 33.6459 35.5282 33.6459 35.9874C33.6459 36.4467 34.018 36.8193 34.4777 36.8193H48.8204C50.2414 36.8193 51.3975 37.9754 51.3975 39.3964V40.4265C51.3975 41.8475 50.2414 43.0037 48.8204 43.0037H33.7856C33.8873 42.4209 33.9411 41.8219 33.9411 41.2101C33.9411 37.3491 31.8237 33.8615 28.4706 32.067C29.308 29.8389 31.4434 28.3329 33.8744 28.3329H42.0135H42.016H52.537C55.7221 28.3329 58.3133 30.9241 58.3133 34.1088V44.1449C58.3138 47.327 55.7268 49.9161 52.5459 49.9208V49.9208Z" stroke="#389494" stroke-width="0.5" mask="url(#path-1-outside-1)"/>
</g>
<defs>
<clipPath id="clip0">
<rect width="56" height="56" fill="white" transform="translate(8 8)"/>
</clipPath>
</defs>
</svg>
