<svg width="16" height="16" viewBox="0 0 16 16" fill="none" xmlns="http://www.w3.org/2000/svg">
<path fill-rule="evenodd" clip-rule="evenodd" d="M7.99984 15.3333C3.94975 15.3333 0.666504 12.05 0.666504 7.99996C0.666504 3.94987 3.94975 0.666626 7.99984 0.666626C12.0499 0.666626 15.3332 3.94987 15.3332 7.99996C15.3332 12.05 12.0499 15.3333 7.99984 15.3333ZM7.9998 14C11.3135 14 13.9998 11.3137 13.9998 7.99998C13.9998 4.68627 11.3135 1.99998 7.9998 1.99998C4.68609 1.99998 1.9998 4.68627 1.9998 7.99998C1.9998 11.3137 4.68609 14 7.9998 14ZM11.3332 7.33331H8.66654V3.99998H7.33321V8.66665H11.3332V7.33331Z" fill="black"/>
</svg>
